<?xml version="1.0" encoding="UTF-8" standalone="no"?>
<svg width="62px" height="62px" viewBox="0 0 62 62" version="1.1" xmlns="http://www.w3.org/2000/svg" xmlns:xlink="http://www.w3.org/1999/xlink">
    <!-- Generator: Sketch 3.6.1 (26313) - http://www.bohemiancoding.com/sketch -->
    <title>Group 5 Copy</title>
    <desc>Created with Sketch.</desc>
    <defs></defs>
    <g id="Page-1" stroke="none" stroke-width="1" fill="none" fill-rule="evenodd">
        <g id="Home-1170px" transform="translate(-689.000000, -1208.000000)">
            <g id="Vendeurs" transform="translate(153.000000, 1209.000000)">
                <g id="Top" transform="translate(489.000000, 0.000000)">
                    <g id="Group-5-Copy" transform="translate(48.000000, 0.000000)">
                        <g id="ea02" transform="translate(18.000000, 15.000000)" fill="#1968A8">
                            <path d="M16.3927428,16.8409819 C19.1462113,15.3041622 21.0032017,12.3585912 21.0032017,8.99679829 C21.0032017,4.03415155 16.9690502,0 12.0064034,0 C7.01173959,0 2.97758805,4.03415155 2.97758805,8.99679829 C2.97758805,12.3585912 4.83457844,15.3041622 7.58804696,16.8409819 C3.13767343,18.601921 0,22.9242263 0,28.0149413 L0,30 L1.9850587,30 L1.9850587,28.0149413 C1.9850587,22.4759872 6.46744931,17.9935966 12.0064034,17.9935966 C17.5453575,17.9935966 21.9957311,22.4759872 21.9957311,28.0149413 L21.9957311,30 L24.0128068,30 L24.0128068,28.0149413 C24.0128068,22.9242263 20.8431163,18.601921 16.3927428,16.8409819 L16.3927428,16.8409819 Z M4.99466382,8.99679829 C4.99466382,5.12273212 8.13233725,1.9850587 12.0064034,1.9850587 C15.8484525,1.9850587 18.9861259,5.12273212 18.9861259,8.99679829 C18.9861259,12.8708645 15.8484525,16.0085379 12.0064034,16.0085379 C8.13233725,16.0085379 4.99466382,12.8708645 4.99466382,8.99679829 L4.99466382,8.99679829 Z" id="Shape"></path>
                        </g>
                        <circle id="Oval-9" stroke="#2499D6" stroke-width="2" cx="30" cy="30" r="30"></circle>
                    </g>
                </g>
            </g>
        </g>
    </g>
</svg>