<?xml version="1.0" encoding="UTF-8" standalone="no"?>
<svg width="62px" height="62px" viewBox="0 0 62 62" version="1.1" xmlns="http://www.w3.org/2000/svg" xmlns:xlink="http://www.w3.org/1999/xlink">
    <!-- Generator: Sketch 3.8.1 (29687) - http://www.bohemiancoding.com/sketch -->
    <title>Group 5 Copy</title>
    <desc>Created with Sketch.</desc>
    <defs></defs>
    <g id="Page-1" stroke="none" stroke-width="1" fill="none" fill-rule="evenodd">
        <g id="Group-5-Copy" transform="translate(1.000000, 1.000000)">
            <path d="M44.2915916,26.9518005 L31.514788,42.6949925 L31.556151,42.7983425 L31.3838155,42.8557591 L30.3047471,44.1850704 C30.1563148,44.3876365 29.9619223,44.4882305 29.7670652,44.4882305 C29.5712911,44.4882305 29.3746,44.3848806 29.2270725,44.1790989 L15.4663365,26.8057328 C15.172223,26.3950889 15.1248812,25.6941462 15.3620182,25.2485926 L19.3611433,17.7187405 C19.598745,17.2722687 20.2049086,16.9070984 20.709505,16.9070984 L29.7868235,16.9070984 C29.7905038,16.9070984 29.7941718,16.9043425 29.7973997,16.9043425 C29.8019847,16.9043425 29.8065819,16.9070984 29.8102622,16.9070984 L39.0557713,16.9070984 C39.5603799,16.9070984 40.165162,17.2736467 40.3986188,17.7210367 L44.4087846,25.3987941 C44.6431584,25.8466439 44.58985,26.5457501 44.2915916,26.9518005 L44.2915916,26.9518005 L44.2915916,26.9518005 Z M29.7537381,38.2996315 L34.6030597,26.0923873 L24.8602902,26.0923873 L29.7537381,38.2996315 L29.7537381,38.2996315 L29.7537381,38.2996315 Z M33.9261156,24.2550537 L29.8065819,18.7531595 L25.6870482,24.2550537 L33.9261156,24.2550537 L33.9261156,24.2550537 L33.9261156,24.2550537 Z M28.6144775,40.3399909 L22.9852751,26.1034122 L22.4682564,26.1034122 L22.4765338,26.0923873 L17.2278511,26.0923873 L28.6144775,40.3399909 L28.6144775,40.3399909 L28.6144775,40.3399909 Z M20.4250384,19.6286482 L17.9677505,24.2545952 L22.2541055,24.2545952 L20.4250384,19.6286482 L20.4250384,19.6286482 L20.4250384,19.6286482 Z M24.0298642,24.0212533 L27.9848753,18.7448905 L21.9149488,18.7448905 L24.0298642,24.0212533 L24.0298642,24.0212533 L24.0298642,24.0212533 Z M31.6554074,18.7448905 L35.4835786,23.8761039 L37.521747,18.7448905 L31.6554074,18.7448905 L31.6554074,18.7448905 L31.6554074,18.7448905 Z M39.2226048,19.4311355 L37.3062145,24.2550537 L41.7410139,24.2550537 L39.2226048,19.4311355 L39.2226048,19.4311355 L39.2226048,19.4311355 Z M37.1370946,26.0923873 L37.1458245,26.1034122 L36.5722939,26.1034122 L30.8635811,40.4741155 L42.6435898,26.0919288 L37.1370946,26.0919288 L37.1370946,26.0923873 L37.1370946,26.0923873 Z" id="Shape" fill="#1968A8"></path>
            <circle id="Oval-9" stroke="#2499D6" stroke-width="2" cx="30" cy="30" r="30"></circle>
        </g>
    </g>
</svg>