<?xml version="1.0" encoding="UTF-8" standalone="no"?>
<svg width="62px" height="62px" viewBox="0 0 62 62" version="1.1" xmlns="http://www.w3.org/2000/svg" xmlns:xlink="http://www.w3.org/1999/xlink">
    <!-- Generator: Sketch 3.6.1 (26313) - http://www.bohemiancoding.com/sketch -->
    <title>Group 5 Copy 2</title>
    <desc>Created with Sketch.</desc>
    <defs></defs>
    <g id="Page-1" stroke="none" stroke-width="1" fill="none" fill-rule="evenodd">
        <g id="Home-1170px" transform="translate(-689.000000, -759.000000)">
            <g id="Boutiques" transform="translate(153.000000, 760.000000)">
                <g id="Top" transform="translate(482.000000, 0.000000)">
                    <g id="Group-5-Copy-2" transform="translate(55.000000, 0.000000)">
                        <circle id="Oval-9" stroke="#2499D6" stroke-width="2" cx="30" cy="30" r="30"></circle>
                        <path d="M45,26.25 L41.25,15 L18.75,15 L15,26.25 L15,26.25 C15,27.96 15.69,29.67 16.86,30.75 L16.86,45 L43.11,45 L43.11,31.05 C44.55,30.03 45,28.14 45,26.25 L45,26.25 L45,26.25 Z M20.01,16.86 L39.99,16.86 L42.51,24.36 L17.49,24.36 L20.01,16.86 L20.01,16.86 Z M41.25,43.11 L18.75,43.11 L18.75,39.36 L41.25,39.36 L41.25,43.11 L41.25,43.11 Z M41.25,37.5 L18.75,37.5 L18.75,31.77 C19.02,31.83 19.32,31.86 19.62,31.86 C21.03,31.86 22.56,31.17 23.43,30 C24.18,31.14 25.2,31.86 26.7,31.86 C28.05,31.86 29.22,30.96 30,30 C30.78,30.96 31.95,31.86 33.3,31.86 C34.8,31.86 35.79,31.14 36.57,30 C37.44,31.17 38.91,31.86 40.32,31.86 C40.65,31.86 40.95,31.83 41.25,31.77 L41.25,37.5 L41.25,37.5 Z M40.38,30 C37.5,30 37.5,28.11 37.5,28.11 L35.61,28.11 C35.61,28.11 35.61,30 33.3,30 C30.93,30 30.99,28.11 30.99,28.11 L29.01,28.11 C29.01,28.11 29.07,30 26.7,30 C24.36,30 24.36,28.11 24.36,28.11 L22.5,28.11 C22.5,30 20.94,30 19.62,30 C18.3,30 17.22,27.87 16.89,26.25 L43.11,26.25 C43.11,26.25 43.11,30 40.38,30 L40.38,30 Z" id="Shape" fill="#1968A8"></path>
                    </g>
                </g>
            </g>
        </g>
    </g>
</svg>