<?xml version="1.0" encoding="UTF-8" standalone="no"?>
<svg width="62px" height="62px" viewBox="0 0 62 62" version="1.1" xmlns="http://www.w3.org/2000/svg" xmlns:xlink="http://www.w3.org/1999/xlink">
    <!-- Generator: Sketch 3.6.1 (26313) - http://www.bohemiancoding.com/sketch -->
    <title>Group 5</title>
    <desc>Created with Sketch.</desc>
    <defs></defs>
    <g id="Page-1" stroke="none" stroke-width="1" fill="none" fill-rule="evenodd">
        <g id="Home-1170px" transform="translate(-690.000000, -2047.000000)">
            <g id="Lieux" transform="translate(154.000000, 2048.000000)">
                <g id="Group-9" transform="translate(465.000000, 0.000000)">
                    <g id="Group-5" transform="translate(72.000000, 0.000000)">
                        <path d="M30.25,15 C24.04,15 19,20.04 19,26.25 C19,32.46 30.25,45 30.25,45 C30.25,45 41.5,32.46 41.5,26.25 C41.5,20.04 36.46,15 30.25,15 L30.25,15 Z M20.86,26.25 C20.86,21.06 25.06,16.86 30.25,16.86 C35.41,16.86 39.61,21.06 39.61,26.25 C39.61,31.44 30.25,42.18 30.25,42.18 C30.25,42.18 20.86,31.44 20.86,26.25 L20.86,26.25 Z M30.25,20.61 C27.13,20.61 24.61,23.13 24.61,26.25 C24.61,29.34 27.13,31.86 30.25,31.86 C33.34,31.86 35.86,29.34 35.86,26.25 C35.86,23.13 33.34,20.61 30.25,20.61 L30.25,20.61 Z M30.25,30 C28.18,30 26.5,28.32 26.5,26.25 C26.5,24.18 28.18,22.5 30.25,22.5 C32.32,22.5 34,24.18 34,26.25 C34,28.32 32.32,30 30.25,30 L30.25,30 Z" id="Shape" fill="#1968A8"></path>
                        <circle id="Oval-9" stroke="#2499D6" stroke-width="2" cx="30" cy="30" r="30"></circle>
                    </g>
                </g>
            </g>
        </g>
    </g>
</svg>