<svg width="30" height="29" viewBox="0 0 30 29" version="1.1" xmlns="http://www.w3.org/2000/svg"><title>Shape</title><desc>Created with Sketch.</desc><g stroke="none" stroke-width="1" fill="none" fill-rule="evenodd"><g transform="translate(-705.000000, -917.000000)" fill="#FFFFFF"><g transform="translate(525.000000, 850.000000)"><g transform="translate(165.000000, 51.000000)"><path d="M30 25.4C25.9 25.4 22.5 28.8 22.5 32.9 22.5 37.1 25.9 40.5 30 40.5 34.1 40.5 37.5 37.1 37.5 32.9 37.5 28.8 34.1 25.4 30 25.4L30 25.4ZM30 38.6C26.9 38.6 24.4 36 24.4 32.9 24.4 29.8 26.9 27.3 30 27.3 33.1 27.3 35.6 29.8 35.6 32.9 35.6 36 33.1 38.6 30 38.6L30 38.6ZM41.3 19.8L37.5 19.8C37.5 17.7 35.8 16 33.8 16L26.3 16C24.2 16 22.5 17.7 22.5 19.8L18.8 19.8C16.7 19.8 15 21.4 15 23.5L15 40.5C15 42.5 16.7 44.2 18.8 44.2L41.3 44.2C43.3 44.2 45 42.5 45 40.5L45 23.5C45 21.4 43.3 19.8 41.3 19.8L41.3 19.8ZM26.3 17.9L33.8 17.9C34.8 17.9 35.6 18.7 35.6 19.8L24.4 19.8C24.4 18.7 25.2 17.9 26.3 17.9L26.3 17.9ZM43.1 40.5C43.1 41.5 42.3 42.3 41.3 42.3L18.8 42.3C17.7 42.3 16.9 41.5 16.9 40.5L16.9 29.2 20.6 29.2 20.6 27.3 16.9 27.3 16.9 25.4 20.6 25.4 20.6 23.5 16.9 23.5C16.9 22.5 17.7 21.7 18.8 21.7L41.3 21.7C42.3 21.7 43.1 22.5 43.1 23.5L43.1 40.5 43.1 40.5Z"/></g></g></g></g></svg>