<svg width="26" height="26" viewBox="0 0 26 26" version="1.1" xmlns="http://www.w3.org/2000/svg"><title>smiley wink</title><desc>Created with Sketch.</desc><g stroke="none" stroke-width="1" fill="none" fill-rule="evenodd"><g transform="translate(-847.000000, -918.000000)"><g transform="translate(525.000000, 850.000000)"><g transform="translate(305.000000, 51.000000)"><g transform="translate(15.000000, 15.000000)"><rect x="0" y="0" width="30" height="30"/><g transform="translate(2.500000, 2.500000)" fill="#FFFFFF"><path d="M8.8 11.9C10 11.9 10.9 10.9 10.9 9.7 10.9 8.5 10 7.5 8.8 7.5 7.5 7.5 6.6 8.5 6.6 9.7 6.6 10.9 7.5 11.9 8.8 11.9L8.8 11.9ZM8.8 9.4C8.9 9.4 9.1 9.5 9.1 9.7 9.1 10 8.4 10 8.4 9.7 8.4 9.5 8.6 9.4 8.8 9.4L8.8 9.4ZM12.5 0C5.6 0 0 5.6 0 12.5 0 19.4 5.6 25 12.5 25 19.4 25 25 19.4 25 12.5 25 5.6 19.4 0 12.5 0L12.5 0ZM12.5 22.5C7 22.5 2.5 18 2.5 12.5 2.5 7 7 2.5 12.5 2.5 18 2.5 22.5 7 22.5 12.5 22.5 18 18 22.5 12.5 22.5L12.5 22.5ZM12.5 17.5C10.9 17.5 9.5 16.8 8.5 15.5L6.5 17C7.9 18.9 10.1 20 12.5 20 14.9 20 17.1 18.9 18.5 17L16.5 15.5C15.5 16.8 14.1 17.5 12.5 17.5L12.5 17.5Z"/><rect x="13.8" y="8.8" width="5" height="2.5"/></g></g></g></g></g></g></svg>