<svg width="32" height="30" viewBox="0 0 32 30" version="1.1" xmlns="http://www.w3.org/2000/svg"><title>Page 1</title><desc>Created with Sketch.</desc><g stroke="none" stroke-width="1" fill="none" fill-rule="evenodd"><g transform="translate(-564.000000, -918.000000)" fill="#FFFFFF"><g transform="translate(525.000000, 850.000000)"><g transform="translate(25.000000, 51.000000)"><g transform="translate(14.000000, 17.000000)"><path d="M21.5 0C22.3 0 23 0.1 23.8 0 24.1 0 24 0.2 24 0.4 24 1.6 24 2.9 24 4.1 24 7.7 24 11.4 24 15 24 15.3 24 15.5 23.6 15.4 23 15.4 22.4 15.4 21.8 15.4 21.5 15.5 21.5 15.3 21.5 15.1 21.5 11.7 21.5 8.4 21.5 5.1 21.5 3.5 21.5 2 21.5 0.5L21.5 0M31.7 10.6C31.7 14 31.7 17.4 31.7 20.7 31.7 21.1 31.6 21.2 31.3 21.2 31 21.1 30.6 21.1 30.3 21.2 30 21.2 29.9 21.1 29.9 20.8 29.9 18.8 29.9 16.8 29.9 14.8 29.9 10 29.9 5.3 29.9 0.5 29.9 0.2 30 0 30.4 0 30.7 0.1 31 0.1 31.3 0 31.6 0 31.7 0.1 31.7 0.4 31.7 2.1 31.7 3.8 31.7 5.6 31.7 7.2 31.7 8.9 31.7 10.6L31.7 10.6ZM0 15.6C0 14.3 0 13 0 11.6 0 7.9 0 4.2 0 0.5 0 0.1 0.1 0 0.5 0 1 0.1 1.5 0.1 2 0 2.3 0 2.4 0.1 2.4 0.4 2.3 3.4 2.3 6.4 2.3 9.4 2.3 10.3 2.4 11.1 2.3 11.9 2.3 12.1 2.3 12.2 2.2 12.3 1.3 13.3 0.6 14.4 0 15.6M29 15.4C28.5 15.4 28 15.4 27.6 15.4 27.3 15.5 27.3 15.3 27.3 15.1 27.3 13.4 27.3 11.7 27.3 10 27.3 6.8 27.3 3.6 27.2 0.5 27.2 0.1 27.3 0 27.7 0 28 0.1 28.3 0.1 28.7 0 28.9 0 29 0.1 29 0.4 29 2 29 3.6 29 5.2 29 8.5 29 11.7 29 15L29 15.4M18.6 7.8C18.6 10.2 18.6 12.6 18.6 15 18.6 15.3 18.5 15.4 18.2 15.4 17.6 15.5 17.2 15.4 17 14.7 17 14.5 16.9 14.2 16.9 14 16.9 9.5 16.9 5 16.9 0.5 16.9 0.1 16.9 0 17.3 0 17.6 0.1 17.9 0.1 18.3 0 18.6 0 18.6 0.2 18.6 0.4 18.6 2.8 18.6 5.2 18.6 7.6L18.6 7.8M16.2 13.2C15.5 12.6 14.9 12 14.2 11.4 14.1 11.3 14.1 11.2 14.1 11 14.1 7.5 14.1 4 14.1 0.4 14.1 0.1 14.2 0 14.5 0 14.9 0.1 15.4 0.1 15.8 0 16.1 0 16.2 0.1 16.2 0.4 16.2 3.3 16.2 6.2 16.2 9.1 16.2 10.4 16.2 11.6 16.2 12.9 16.2 13 16.2 13.1 16.2 13.2M13.2 10.7C12.4 10.4 11.7 10.2 11.1 9.9 11 9.9 10.9 9.7 10.9 9.5 10.8 7.1 10.8 4.6 10.8 2.2 10.8 1.6 10.9 1 10.8 0.3 10.8 0.1 10.9 0 11.1 0 11.7 0.1 12.3 0.1 12.8 0 13.2 0 13.2 0.2 13.2 0.4 13.2 3.4 13.2 6.4 13.2 9.3L13.2 10.7M3.3 0C3.9 0 4.5 0.1 5.1 0 5.4 0 5.4 0.2 5.4 0.4 5.4 1.9 5.4 3.3 5.4 4.8 5.4 6.5 5.4 8.2 5.4 9.9 5.4 10.2 5.3 10.3 5 10.4 4.4 10.7 3.9 11 3.3 11.4L3.3 0ZM19.5 15.4C19.5 15.1 19.5 14.9 19.5 14.7 19.5 9.9 19.5 5.2 19.5 0.5 19.5 0 19.5 0 20 0 20.6 0 20.6 0 20.6 0.7 20.6 5.4 20.6 10.2 20.6 14.9 20.6 15.4 20.6 15.4 20.1 15.4 19.9 15.4 19.7 15.4 19.5 15.4M25.9 15.4C24.8 15.5 24.8 15.5 24.8 14.5 24.8 9.8 24.8 5.1 24.8 0.5 24.8 0.2 24.9 0 25.3 0 25.5 0.1 25.7 0 25.9 0L25.9 15.4ZM6.1 0C6.5 0 7 0.1 7.4 0 7.7 0 7.8 0.1 7.8 0.4 7.8 2.1 7.8 3.8 7.8 5.6 7.8 6.8 7.8 8.1 7.8 9.3 7.8 9.6 7.7 9.7 7.4 9.7 7 9.8 6.5 9.9 6.1 10L6.1 0ZM9.8 9.6C8.7 9.7 8.7 9.7 8.7 8.7 8.7 5.9 8.7 3.2 8.7 0.5 8.7 0.1 8.7 0 9.1 0 9.8 0.1 9.8 0 9.8 0.8 9.8 3.6 9.8 6.4 9.8 9.2L9.8 9.6M24.1 19.6C24.1 19.3 24 19 23.7 19 23.4 19 23.2 19.3 23.2 19.6 23.2 19.9 23.4 20.2 23.7 20.2 24 20.2 24.1 20 24.1 19.6M25 16.6L25 17.5C23.4 17.5 23.2 17.7 23.1 18.5 23.4 18.4 23.6 18.2 23.9 18.1 24.5 18 25 18.3 25.2 18.9 25.4 19.5 25.4 20.2 24.9 20.7 24.4 21.2 23.8 21.3 23.2 21.1 22.5 20.9 22.1 20.5 22.1 19.8 22 19.2 22 18.6 22.2 18 22.4 17.1 23 16.7 23.9 16.6 24.2 16.6 24.6 16.6 25 16.6M21.2 16.6C21.2 16.9 21.2 17.1 21.2 17.4 21.1 17.5 21 17.6 20.9 17.6 20.5 17.6 20.1 17.6 19.6 17.6 19.6 17.8 19.6 17.9 19.6 18.2 19.7 18.2 19.9 18.2 20 18.2 20.9 18.2 21.4 18.6 21.5 19.4 21.6 20.3 21.1 21 20.3 21.1 19.8 21.2 19.2 21.1 18.7 21 18.4 21 18.3 20.9 18.3 20.6 18.3 20.4 18.3 20.2 18.3 20 18.7 20.1 19 20.1 19.3 20.2 19.5 20.2 19.7 20.2 19.9 20.1 20 20 20.2 19.8 20.2 19.6 20.2 19.5 20 19.2 19.9 19.2 19.6 19.1 19.4 19.1 19.1 19.1 18.6 19.2 18.4 19.1 18.4 18.6 18.4 18.2 18.5 17.9 18.5 17.6 18.5 17.2 18.5 16.9 18.6 16.6L21.2 16.6ZM8.7 20C9.1 20 9.5 20 9.9 20 10.1 20 10.3 20.1 10.3 20.4 10.2 21.2 10.4 21.1 9.5 21.1 8.7 21.1 7.9 21.1 7.1 21.1 7 20.7 6.9 20.3 7.3 20 7.8 19.6 8.2 19.1 8.7 18.6 9 18.2 9.1 17.9 8.9 17.7 8.7 17.5 8.4 17.5 8 17.8 7.8 17.9 7.7 17.9 7.6 18 7.4 17.8 7.2 17.5 7 17.3 7.6 16.6 8.4 16.4 9.3 16.6 10.1 16.9 10.4 17.6 10.1 18.4 9.9 18.7 9.7 19 9.4 19.3 9.2 19.5 8.9 19.7 8.7 19.9 8.7 20 8.7 20 8.7 20M11.3 17.8C11.1 17.5 10.9 17.3 10.8 17 11.4 16.5 12.9 16.4 13.5 16.8 14.1 17.3 14 18.1 13.4 18.5 13.3 18.6 13.2 18.6 13 18.7 13.1 18.8 13.2 18.8 13.3 18.8 14.1 19.1 14.3 20.1 13.7 20.7 13 21.3 11.6 21.2 10.9 20.9 10.8 20.9 10.8 20.8 10.8 20.8 10.8 20.5 10.8 20.3 10.8 20 11.1 20.1 11.4 20.2 11.7 20.2 11.9 20.2 12.2 20.2 12.4 20.1 12.5 20.1 12.7 19.9 12.7 19.8 12.7 19.6 12.6 19.4 12.4 19.3 12.2 19.3 12 19.2 11.7 19.2 11.5 19.2 11.5 19.1 11.4 18.9 11.4 18.4 11.4 18.4 12 18.3 12.5 18.3 12.7 18.1 12.7 17.8 12.7 17.6 12.4 17.5 11.9 17.5 11.7 17.6 11.5 17.7 11.3 17.8M26.1 21.1C26.7 19.9 27.2 18.8 27.7 17.6 27.1 17.6 26.6 17.6 26.1 17.6 25.8 17.6 25.7 17.5 25.7 17.2 25.8 16.5 25.7 16.5 26.4 16.5 27.2 16.5 27.9 16.6 28.6 16.5 28.9 16.5 29 16.6 29 17 29 17.2 28.9 17.4 28.9 17.6 28.4 18.7 28 19.7 27.6 20.8 27.5 21 27.4 21.1 27.1 21.1 26.8 21.1 26.5 21.1 26.1 21.1M4.8 18C4.5 18.2 4.2 18.4 4 18.6 3.7 18.4 3.6 18.1 3.3 17.8 3.8 17.4 4.3 17 4.9 16.6 5.1 16.5 5.5 16.6 5.8 16.6 5.9 16.6 6 16.7 6 16.8 6 18.1 6 19.5 5.9 20.8 5.9 21.3 5.5 21 5.2 21.1 5 21.1 4.7 21.2 4.7 20.8 4.8 20 4.8 19.2 4.8 18.4 4.8 18.3 4.8 18.2 4.8 18M7.8 12.9C7.8 13.8 7.8 14.5 7.8 15.3 7.8 15.3 7.6 15.4 7.5 15.4 7.1 15.4 6.7 15.4 6.3 15.4 6.1 15.4 6 15.4 6 15.2 6 14.7 6 14.2 6 13.8 6 13.7 6.1 13.5 6.1 13.5 6.6 13.3 7.2 13.1 7.8 12.9M10.8 13.3C11.8 13.6 12.5 14.1 13.1 14.8 13.2 14.9 13.2 15.2 13.2 15.3 13.1 15.4 12.9 15.4 12.8 15.4 12.2 15.4 11.7 15.4 11.1 15.4 11 15.4 10.8 15.4 10.8 15.2 10.9 14.6 10.8 14 10.8 13.3M8.7 12.9C9 12.9 9.3 12.9 9.6 13 9.7 13 9.8 13.1 9.8 13.1 9.8 13.8 9.8 14.5 9.8 15.3 9.8 15.3 9.7 15.4 9.6 15.4 9.4 15.4 9.1 15.4 8.9 15.4 8.8 15.4 8.7 15.3 8.7 15.3 8.7 14.5 8.7 13.7 8.7 12.9M3.9 15.3C4.4 14.9 4.8 14.4 5.2 14 5.3 14 5.3 14 5.4 14.1 5.4 14.5 5.4 14.9 5.3 15.3 5.3 15.3 5.3 15.4 5.2 15.4 4.8 15.4 4.4 15.4 4 15.4 4 15.4 3.9 15.4 3.9 15.3M24.1 19.6C24.1 20 24 20.2 23.7 20.2 23.4 20.2 23.2 19.9 23.2 19.6 23.2 19.3 23.4 19 23.7 19 24 19 24.1 19.3 24.1 19.6M20 28.5L15 23.5C16.1 22.1 16.8 20.4 16.8 18.5 16.8 14.1 13.2 10.6 8.8 10.6 4.4 10.6 0.9 14.1 0.9 18.5 0.9 22.9 4.4 26.5 8.8 26.5 10.7 26.5 12.4 25.8 13.8 24.7L18.8 29.7C19 29.9 19.2 30 19.4 30 19.6 30 19.9 29.9 20 29.7 20.4 29.4 20.4 28.8 20 28.5L20 28.5ZM8.8 24.7C5.4 24.7 2.6 21.9 2.6 18.5 2.6 15.1 5.4 12.4 8.8 12.4 12.2 12.4 15 15.1 15 18.5 15 21.9 12.2 24.7 8.8 24.7L8.8 24.7Z"/></g></g></g></g></g></svg>