<?xml version="1.0" standalone="no"?>
<!DOCTYPE svg PUBLIC "-//W3C//DTD SVG 20010904//EN"
 "http://www.w3.org/TR/2001/REC-SVG-20010904/DTD/svg10.dtd">
<svg version="1.0" xmlns="http://www.w3.org/2000/svg"
 width="864.000000pt" height="864.000000pt" viewBox="0 0 864.000000 864.000000"
 preserveAspectRatio="xMidYMid meet">
<metadata>
Created by potrace 1.11, written by Peter Selinger 2001-2013
</metadata>
<g transform="translate(0.000000,864.000000) scale(0.100000,-0.100000)"
fill="#000000" stroke="none">
<path d="M3320 8093 c-41 -2 -81 -9 -88 -16 -12 -10 -14 -40 -9 -167 4 -130 9
-168 31 -237 32 -99 92 -191 160 -245 60 -48 185 -109 275 -134 81 -22 62 -32
-64 -33 -106 -1 -186 15 -321 62 -299 104 -604 278 -822 469 -72 63 -169 169
-199 218 -37 63 -127 89 -192 55 -62 -31 -213 -230 -286 -375 -232 -461 -232
-972 1 -1338 19 -29 34 -55 34 -58 0 -3 -28 -36 -61 -72 -149 -163 -341 -445
-459 -677 -37 -71 -70 -132 -73 -135 -8 -6 -138 87 -242 175 -218 183 -412
189 -586 16 -144 -143 -208 -369 -188 -661 30 -445 291 -879 728 -1210 31 -24
34 -31 51 -135 23 -141 53 -277 85 -388 14 -48 25 -89 25 -91 0 -5 -130 -56
-210 -81 -30 -10 -68 -31 -84 -47 -27 -27 -28 -33 -23 -84 9 -84 43 -144 97
-171 56 -28 185 -31 291 -7 39 9 72 14 74 12 2 -2 89 -172 123 -239 1 -3 -48
-59 -109 -125 -325 -347 -543 -632 -657 -859 -78 -155 -97 -222 -97 -340 0
-89 3 -106 28 -156 38 -79 101 -133 220 -189 180 -86 351 -116 597 -107 148 6
241 18 378 51 l63 15 74 -40 c96 -52 178 -84 273 -106 107 -25 344 -24 462 1
200 43 433 141 634 267 l99 62 91 -21 c551 -132 1170 -112 1698 54 798 251
1445 774 1862 1504 57 101 71 118 108 137 105 51 255 191 380 356 135 177 283
442 331 592 46 145 52 184 51 340 0 133 -3 158 -26 227 -57 171 -162 307 -282
364 -92 44 -160 57 -275 52 -117 -6 -162 -21 -311 -104 -65 -36 -128 -64 -144
-64 -15 0 -91 25 -168 56 -229 90 -380 116 -542 95 -171 -23 -285 -78 -401
-195 -125 -126 -186 -271 -205 -491 -26 -294 44 -589 190 -799 190 -274 504
-449 895 -496 49 -6 91 -13 93 -15 2 -2 -24 -45 -59 -97 -267 -400 -606 -713
-964 -889 -164 -80 -263 -109 -490 -141 -215 -30 -617 -32 -800 -4 -403 61
-687 183 -1049 448 -44 32 -85 58 -91 58 -7 0 -42 -25 -79 -55 -37 -30 -107
-79 -156 -109 -49 -30 -124 -84 -167 -118 -387 -313 -826 -534 -1228 -619
-125 -26 -390 -37 -491 -20 -95 16 -212 56 -268 91 -37 24 -46 35 -46 58 0 78
80 250 191 413 113 165 338 436 512 616 l60 61 36 -23 c65 -43 182 -71 204
-49 3 4 -46 109 -109 235 -154 309 -266 579 -298 722 l-6 27 59 0 c67 0 306
23 466 46 261 36 697 124 702 141 9 27 -59 54 -228 88 -724 150 -1249 417
-1567 799 -188 226 -283 439 -312 698 -30 269 82 535 205 484 16 -7 82 -54
145 -105 427 -343 898 -555 1353 -612 142 -17 389 -7 492 20 92 25 118 43 95
66 -9 8 -92 30 -190 49 -307 62 -612 159 -875 278 -88 40 -225 110 -244 124
-7 6 131 273 191 369 54 86 73 107 133 148 94 66 306 168 435 211 128 42 227
63 368 77 59 6 109 12 110 14 7 7 -74 43 -158 70 -281 91 -479 252 -581 469
-111 238 -103 558 23 856 32 75 113 226 127 234 4 3 52 -36 107 -86 114 -104
173 -151 299 -235 265 -177 619 -335 870 -388 107 -23 263 -21 450 5 200 28
381 35 548 21 515 -43 982 -207 1407 -492 177 -119 271 -198 445 -373 243
-245 400 -464 550 -771 77 -156 152 -349 190 -485 l15 -55 115 -22 c214 -42
364 -119 486 -251 l66 -71 58 117 c400 813 635 1605 635 2143 0 297 -54 487
-157 550 -129 80 -382 -63 -982 -558 -407 -336 -621 -503 -643 -503 -6 0 -77
64 -157 143 -205 200 -368 327 -604 470 -121 74 -329 178 -442 221 -70 27 -72
29 -132 119 -168 250 -470 497 -808 662 -285 139 -537 210 -838 234 -124 11
-149 11 -307 4z m3164 -3993 c53 -27 122 -98 162 -167 113 -191 90 -502 -48
-644 -117 -120 -270 -118 -394 5 -101 101 -143 204 -151 371 -7 154 22 259 99
357 83 105 215 136 332 78z m889 -36 c80 -53 131 -173 131 -314 1 -101 -20
-177 -66 -246 -130 -193 -349 -94 -387 175 -38 279 147 500 322 385z"/>
<path d="M6067 5610 c-110 -20 -178 -147 -163 -305 11 -120 83 -243 167 -285
62 -32 108 -34 158 -8 110 57 156 198 116 353 -41 158 -163 265 -278 245z"/>
<path d="M4805 5284 c-49 -25 -102 -84 -126 -138 -26 -62 -36 -186 -20 -271
38 -205 215 -364 362 -325 58 16 121 78 155 153 25 55 28 73 28 162 0 66 -6
119 -17 155 -36 115 -118 219 -203 259 -53 25 -136 28 -179 5z"/>
<path d="M4195 3048 c-64 -35 -94 -99 -76 -164 25 -90 258 -343 416 -450 162
-111 313 -176 498 -216 147 -31 427 -32 573 0 168 36 235 60 270 98 55 58 51
146 -10 202 -31 28 -43 32 -88 32 -29 0 -82 -9 -117 -20 -268 -84 -576 -61
-824 61 -151 75 -311 211 -426 364 -28 38 -64 77 -79 87 -30 20 -106 24 -137
6z"/>
</g>
</svg>
