<?xml version="1.0" encoding="UTF-8" standalone="no"?>
<svg width="22px" height="21px" viewBox="0 0 22 21" version="1.1" xmlns="http://www.w3.org/2000/svg" xmlns:xlink="http://www.w3.org/1999/xlink">
    <!-- Generator: Sketch 3.6.1 (26313) - http://www.bohemiancoding.com/sketch -->
    <title>Shape</title>
    <desc>Created with Sketch.</desc>
    <defs></defs>
    <g id="Page-1" stroke="none" stroke-width="1" fill="none" fill-rule="evenodd">
        <g id="Home-1170px" transform="translate(-283.000000, -601.000000)" fill="#FFFFFF">
            <g id="Catégories" transform="translate(0.000000, 580.000000)">
                <g id="Insolite" transform="translate(153.000000, 0.000000)">
                    <g id="Group-21" transform="translate(103.000000, 21.000000)">
                        <path d="M48.7,10.3 L46.9,8.5 L45.9,0.8 C45.9,0.4 45.5,0 45,0 L31,0 C30.5,0 30.1,0.4 30,0.9 L29,8.6 L27.2,10.4 C27.1,10.5 27,10.7 27,11 L27,17 C27,17.6 27.4,18 28,18 L29,18 L29,20 C29,20.6 29.4,21 30,21 L33,21 C33.6,21 34,20.6 34,20 L34,18 L42,18 L42,20 C42,20.6 42.4,21 43,21 L46,21 C46.6,21 47,20.6 47,20 L47,18 L48,18 C48.6,18 49,17.6 49,17 L49,11 C49,10.7 48.9,10.5 48.7,10.3 L48.7,10.3 Z M31.9,2 L44.1,2 L44.9,8 L31.1,8 L31.9,2 L31.9,2 Z M34,14 L32,14 C31.4,14 31,13.6 31,13 C31,12.4 31.4,12 32,12 L34,12 C34.6,12 35,12.4 35,13 C35,13.6 34.6,14 34,14 L34,14 Z M44,14 L42,14 C41.4,14 41,13.6 41,13 C41,12.4 41.4,12 42,12 L44,12 C44.6,12 45,12.4 45,13 C45,13.6 44.6,14 44,14 L44,14 Z" id="Shape"></path>
                    </g>
                </g>
            </g>
        </g>
    </g>
</svg>