<?xml version="1.0" encoding="UTF-8" standalone="no"?>
<svg width="20px" height="24px" viewBox="0 0 20 24" version="1.1" xmlns="http://www.w3.org/2000/svg" xmlns:xlink="http://www.w3.org/1999/xlink">
    <!-- Generator: Sketch 3.6.1 (26313) - http://www.bohemiancoding.com/sketch -->
    <title>Group</title>
    <desc>Created with Sketch.</desc>
    <defs></defs>
    <g id="Page-1" stroke="none" stroke-width="1" fill="none" fill-rule="evenodd">
        <g id="Home-1170px" transform="translate(-850.000000, -592.000000)" fill="#FFFFFF">
            <g id="Catégories" transform="translate(0.000000, 580.000000)">
                <g id="Mode" transform="translate(719.000000, 0.000000)">
                    <g id="Group-22" transform="translate(102.000000, 12.000000)">
                        <g id="Group" transform="translate(29.000000, 0.000000)">
                            <path d="M16.2,8 C16.5,6.5 17,3.8 17,1 C17,0.4 16.6,0 16,0 C13,0 11,1.1 10,1.7 C9,1.1 7,0 4,0 C3.4,0 3,0.4 3,1 C3,3.8 3.5,6.5 3.8,8 L16.2,8 L16.2,8 Z" id="Shape"></path>
                            <path d="M16.6,10 L3.4,10 C2.2,12.5 0,17.7 0,23 C0,23.6 0.4,24 1,24 L19,24 C19.6,24 20,23.6 20,23 C20,17.7 17.8,12.5 16.6,10 L16.6,10 Z" id="Shape"></path>
                        </g>
                    </g>
                </g>
            </g>
        </g>
    </g>
</svg>