<?xml version="1.0" encoding="UTF-8" standalone="no"?>
<svg width="24px" height="14px" viewBox="0 0 24 14" version="1.1" xmlns="http://www.w3.org/2000/svg" xmlns:xlink="http://www.w3.org/1999/xlink">
    <!-- Generator: Sketch 3.6.1 (26313) - http://www.bohemiancoding.com/sketch -->
    <title>Shape</title>
    <desc>Created with Sketch.</desc>
    <defs></defs>
    <g id="Page-1" stroke="none" stroke-width="1" fill="none" fill-rule="evenodd">
        <g id="Home-1170px" transform="translate(-566.000000, -608.000000)" fill="#FFFFFF">
            <g id="Catégories" transform="translate(0.000000, 580.000000)">
                <g id="Insolite-Copy" transform="translate(436.000000, 0.000000)">
                    <g id="Group" transform="translate(130.000000, 21.000000)">
                        <path d="M17,7 L7,7 C3.1,7 0,10.1 0,14 C0,17.9 3.1,21 7,21 L17,21 C20.9,21 24,17.9 24,14 C24,10.1 20.9,7 17,7 L17,7 Z M9,15 L8,15 L8,16 C8,16.6 7.6,17 7,17 C6.4,17 6,16.6 6,16 L6,15 L5,15 C4.4,15 4,14.6 4,14 C4,13.4 4.4,13 5,13 L6,13 L6,12 C6,11.4 6.4,11 7,11 C7.6,11 8,11.4 8,12 L8,13 L9,13 C9.6,13 10,13.4 10,14 C10,14.6 9.6,15 9,15 L9,15 Z M16.7,13.7 C16.5,13.9 16.3,14 16,14 C15.7,14 15.5,13.9 15.3,13.7 C14.9,13.3 14.9,12.7 15.3,12.3 L16.3,11.3 C16.7,10.9 17.3,10.9 17.7,11.3 C18.1,11.7 18.1,12.3 17.7,12.7 L16.7,13.7 L16.7,13.7 Z M19.7,15.7 L18.7,16.7 C18.5,16.9 18.3,17 18,17 C17.7,17 17.5,16.9 17.3,16.7 C16.9,16.3 16.9,15.7 17.3,15.3 L18.3,14.3 C18.7,13.9 19.3,13.9 19.7,14.3 C20.1,14.7 20.1,15.3 19.7,15.7 L19.7,15.7 Z" id="Shape"></path>
                    </g>
                </g>
            </g>
        </g>
    </g>
</svg>