<svg width="177" height="50" viewBox="0 0 177 50" xmlns="http://www.w3.org/2000/svg"><title>logo-sneefr</title><g fill="none" fill-rule="evenodd"><path d="M21.788 0c.344 0 .69.013 1.033.038.67.048 1.33.14 1.99.276 1.38.286 2.73.766 3.99 1.406.83.416 1.61.9 2.35 1.447.66.483 1.28 1.015 1.84 1.598.41.417.79.862 1.13 1.336l.25.37.01.01.15.07c.06.02.11.05.16.07.39.17.77.34 1.14.52.68.34 1.35.71 1.99 1.12.9.57 1.75 1.21 2.55 1.9.39.34.77.69 1.13 1.05l.01.01c.45-.34.88-.69 1.31-1.05.48-.39.95-.79 1.42-1.18l.47-.38c.56-.46 1.13-.92 1.7-1.36.46-.35.92-.69 1.39-1.02.21-.14.42-.28.63-.41.19-.12.38-.23.57-.33.19-.1.38-.19.57-.28.18-.08.36-.15.54-.2.32-.1.64-.16.97-.16.22.01.45.04.66.1.16.05.3.11.45.19.11.06.2.12.3.19.07.05.14.11.2.17.06.05.11.11.17.17.33.35.56.79.73 1.23.03.07.06.15.08.22l.09.3c.04.16.08.31.11.47.04.22.08.45.1.67.04.31.06.62.06.92.02.44 0 .87-.02 1.31-.03.44-.07.87-.13 1.3-.07.51-.16 1.01-.26 1.52-.11.56-.24 1.12-.38 1.67-.33 1.28-.74 2.54-1.21 3.78-.49 1.31-1.03 2.6-1.62 3.86-.18.39-.37.78-.56 1.17l-.02.04.03.05.03.05.08.13.15.26c.16.3.29.6.4.92.12.37.21.75.27 1.13.05.34.07.68.06 1.02-.01.29-.03.59-.07.88-.08.62-.24 1.24-.46 1.83-.09.25-.19.5-.3.75-.27.6-.6 1.17-.94 1.72-.21.33-.42.66-.65.98-.45.64-.94 1.25-1.49 1.8-.28.28-.58.54-.9.78-.14.11-.28.2-.43.3l-.23.14h-.01l-.09.16c-.03.06-.06.12-.09.17-.11.2-.23.4-.35.6-.16.27-.33.53-.5.8-.9 1.34-1.94 2.58-3.11 3.69-1.24 1.18-2.62 2.21-4.11 3.07-1.36.78-2.8 1.42-4.3 1.89-2.65.83-5.46 1.14-8.23.92-.7-.05-1.39-.14-2.07-.26-.38-.06-.75-.14-1.12-.23l-.05-.01-.14.1-.11.07c-.25.15-.49.29-.75.43-.18.1-.37.2-.56.29-1.1.54-2.28.95-3.5 1.13l-.51.06c-.28.02-.56.03-.84.03-.32 0-.65-.03-.96-.07-.41-.05-.82-.14-1.22-.26-.34-.1-.68-.23-1.01-.38-.16-.07-.32-.15-.47-.24l-.02-.01-.12.03-.14.03c-.18.04-.37.08-.55.11-.4.07-.8.12-1.2.15-.45.04-.89.05-1.34.04-.35-.01-.7-.04-1.05-.09-.41-.06-.81-.14-1.2-.25-.54-.15-1.06-.35-1.56-.62-.33-.17-.66-.36-.94-.61-.23-.19-.43-.41-.6-.65-.15-.22-.28-.45-.38-.7-.1-.25-.17-.5-.21-.76-.06-.41-.06-.84 0-1.25.05-.36.14-.72.26-1.06.1-.29.23-.59.36-.87.18-.38.39-.74.6-1.1.43-.71.92-1.38 1.43-2.03.47-.59.95-1.17 1.45-1.74.2-.22.4-.45.61-.67l.01-.02H6.5c-.1 0-.204 0-.31-.01-.21-.01-.41-.05-.61-.1-.21-.05-.41-.13-.6-.23-.25-.13-.47-.31-.66-.51-.16-.19-.3-.4-.4-.63-.06-.14-.11-.3-.16-.45-.06-.23-.11-.46-.13-.7-.01-.26.01-.54.08-.8.03-.1.07-.2.12-.29.055-.11.12-.22.195-.33.1-.14.23-.27.36-.38.118-.09.247-.18.38-.25.104-.05.21-.1.317-.14.08-.03.16-.06.24-.08-.01-.04-.02-.09-.033-.13l-.04-.15c-.05-.19-.09-.39-.13-.59-.07-.36-.14-.73-.19-1.1l-.09-.07c-.13-.1-.26-.21-.39-.32-.26-.22-.51-.44-.76-.68-.71-.7-1.35-1.46-1.89-2.3-.19-.29-.36-.59-.53-.9-.14-.27-.27-.54-.39-.81-.46-1.03-.75-2.12-.85-3.22-.06-.6-.05-1.2.01-1.8.02-.21.06-.42.1-.63.03-.17.07-.34.12-.51.03-.14.08-.28.12-.41.04-.12.09-.24.14-.36.28-.69.68-1.33 1.22-1.84.13-.11.26-.22.4-.33.17-.12.35-.23.54-.33.24-.12.49-.22.76-.29.17-.04.35-.07.53-.1l.15-.01h.08c.03-.01.06 0 .1-.01h.14c.04 0 .09 0 .13.01h.1c.03 0 .05.01.08.01.05.01.09.01.14.02l.35.06.4.12c.33.12.66.29.95.49l.28.21.17.14c.08.07.17.14.25.21l.04.04.08-.14c.11-.187.21-.37.32-.555.24-.39.48-.77.74-1.14.27-.39.55-.77.84-1.15.15-.18.3-.37.45-.55l-.05-.09c-.07-.13-.13-.26-.19-.4-.12-.26-.22-.52-.31-.8-.09-.25-.16-.52-.22-.78-.04-.193-.08-.39-.11-.59-.21-1.37-.11-2.772.23-4.11.06-.24.13-.48.2-.713.09-.28.19-.56.3-.84.2-.49.43-.97.7-1.43.3-.51.63-1 1.01-1.45.12-.14.24-.28.37-.42.08-.08.15-.15.23-.222.1-.09.21-.18.32-.25.18-.12.38-.22.59-.28.14-.04.29-.07.43-.09l.19-.03h.19c.06 0 .13.01.19.01l.16.01.1.02.03.01c.05.01.1.02.15.04.05.013.1.03.15.05.16.07.31.15.45.25.09.06.17.13.25.2.06.05.11.106.17.16l.12.14.116.166.14.2.03.04c.2.25.42.49.65.71.26.25.54.48.83.69.52.39 1.06.73 1.62 1.05l.02.02-.01-.09-.02-.12c-.03-.19-.05-.384-.06-.58-.04-.55-.02-1.11.03-1.66l.09-.39c.17-.31.19-.41.47-.63.11-.08.226-.15.35-.2.12-.05.257-.06.386-.094.016-.01.03-.01.04-.01l.13-.02c.33-.03.66-.05.99-.07.16 0 .33-.01.49-.01h.08zm-.076 1.467c-.244 0-.488.008-.732.022-.25.01-.497.03-.744.06l-.01.12c-.045.54-.055 1.08.008 1.62.044.37.123.73.258 1.08.09.23.206.45.348.66.087.12.184.24.29.35.067.07.138.14.212.2.412.35.908.59 1.418.77l.223.07.31.09.376.09-.21.02c-.16.02-.32.04-.49.05-.21.02-.42.03-.63.01-.07-.01-.13-.01-.19-.02-.1-.01-.19-.03-.28-.05-.28-.06-.55-.14-.82-.22-.62-.2-1.23-.44-1.82-.72-.86-.4-1.69-.87-2.47-1.41-.11-.08-.22-.15-.33-.23-.66-.48-1.29-1.02-1.81-1.65l-.11-.14-.08-.11-.15-.21-.04-.05c-.01-.01-.04-.05-.04-.05l-.02-.02-.04-.04c-.05-.05-.11-.09-.17-.13-.04-.03-.09-.05-.14-.07-.02-.01-.04-.02-.07-.02-.02-.01-.05-.02-.07-.02h-.02l-.03-.01h-.04l-.07-.01h-.15l-.08.01c-.06.01-.12.03-.18.06-.06.02-.11.05-.16.08-.08.05-.15.12-.21.19l-.15.15c-.17.19-.34.39-.49.6-.11.14-.21.28-.31.43-.13.19-.25.39-.36.59-.14.25-.27.51-.38.77-.14.31-.26.62-.37.94-.09.25-.16.51-.23.77-.05.18-.09.36-.12.54-.21 1.08-.25 2.2-.03 3.28.03.15.06.29.1.44.05.18.1.37.17.55.08.24.18.47.29.7.12.25.26.49.41.72.07.1.14.21.22.31l.02.02-.12.13-.12.13c-.11.11-.21.23-.31.34-.2.23-.39.46-.58.7-.69.87-1.3 1.8-1.84 2.76-.15.27-.29.54-.43.82-.12.23-.23.47-.34.71l-.18-.12c-.17-.12-.34-.25-.51-.37l-.14-.1-.27-.2-.13-.11-.18-.14c-.13-.1-.25-.21-.37-.31l-.08-.07-.24-.18c-.24-.16-.51-.29-.79-.37-.07-.02-.14-.04-.21-.05-.07-.02-.15-.03-.23-.04h-.31l-.09.01c-.1.01-.2.03-.3.05-.12.03-.24.07-.36.12-.1.04-.19.09-.28.14-.06.03-.12.07-.17.11-.41.29-.73.69-.96 1.13-.04.07-.08.14-.11.22-.05.1-.09.2-.13.31-.06.15-.11.3-.16.46-.06.19-.1.39-.13.59-.05.25-.07.51-.09.77-.03.45-.01.91.05 1.37.05.4.13.8.23 1.19.23.87.6 1.71 1.07 2.49.36.61.79 1.18 1.27 1.71.42.47.88.9 1.36 1.31.26.22.53.43.81.63l.02.17c.09.69.21 1.38.37 2.06.07.32.16.64.25.96.04.16.09.32.14.48l-.04.02-.08.04-.05.03c-.05.03-.11.06-.17.08-.1.05-.21.09-.32.12-.18.06-.36.12-.54.17l-.11.04-.11.03-.08.03-.08.03c-.11.05-.22.12-.3.21l-.03.04-.03.06c-.06.12-.066.26-.05.4l.01.06.01.08c.02.1.05.2.08.29.01.05.03.1.05.14.02.05.05.11.08.16.04.06.09.12.14.17.05.05.11.1.18.13.11.07.22.11.34.14.16.04.32.06.48.06.22.01.43-.01.65-.05.23-.03.46-.08.68-.14l.2-.06.07.17c.1.2.2.41.3.61l.42.78v.005l-.257.26-.25.27c-.488.51-.96 1.02-1.42 1.55-.35.4-.69.81-1.025 1.23-.27.345-.54.69-.79 1.05-.2.27-.38.55-.56.83-.14.22-.28.45-.4.68-.09.16-.18.33-.26.5-.06.12-.11.25-.17.38-.04.1-.08.206-.11.31-.03.086-.06.17-.09.26l-.06.23-.04.21c-.06.37-.06.76.04 1.127.01.07.04.13.06.2.04.11.1.22.16.32.08.13.18.26.3.38.16.16.36.29.56.4l.28.15c.43.22.89.39 1.37.51.71.18 1.44.25 2.17.24.74-.01 1.47-.09 2.2-.24.31-.07.62-.14.92-.22l.09.06c.13.08.26.16.4.23.28.15.56.28.86.39.33.12.67.21 1.02.27.25.05.5.08.76.09.18.01.36.02.54.01.14 0 .28-.01.41-.02.98-.07 1.94-.33 2.84-.71.15-.06.3-.13.44-.19.21-.09.41-.19.6-.3.25-.13.49-.26.73-.41.32-.18.62-.38.92-.58l.13.03c.37.09.73.18 1.1.26.66.13 1.32.23 1.99.3 2.85.29 5.75-.03 8.46-.94 1.74-.583 3.4-1.41 4.91-2.44.99-.68 1.92-1.44 2.78-2.28 1.03-1.01 1.95-2.13 2.74-3.34.25-.38.49-.78.72-1.18.07-.12.13-.24.2-.36l.11-.21.07-.13.07-.03c.15-.07.29-.14.43-.23.37-.22.7-.5 1.01-.8.34-.32.64-.67.93-1.03.32-.4.62-.83.9-1.26.4-.61.78-1.24 1.08-1.91.07-.15.13-.3.19-.45.29-.75.48-1.54.5-2.34v-.32l-.03-.4c-.03-.28-.08-.55-.16-.82-.09-.31-.22-.61-.37-.89-.13-.23-.28-.45-.45-.66-.08-.09-.16-.18-.25-.27l.11-.23.13-.26c.21-.427.42-.85.62-1.28.48-1.02.94-2.06 1.35-3.11.39-.986.75-1.98 1.07-2.99.29-.947.55-1.9.76-2.87.09-.43.17-.86.23-1.297.06-.41.11-.82.15-1.24.03-.34.05-.69.05-1.03.003-.32 0-.64-.03-.96-.01-.212-.04-.43-.07-.64-.03-.2-.07-.392-.12-.59-.07-.25-.15-.5-.27-.73-.08-.15-.18-.293-.3-.42-.09-.09-.18-.17-.29-.22-.07-.03-.14-.06-.21-.07-.11-.02-.22-.02-.33-.01-.17.02-.33.07-.49.12-.07.03-.13.05-.2.08-.094.04-.185.08-.276.13-.11.05-.22.11-.326.17-.13.07-.26.143-.384.22-.18.11-.36.22-.53.34-.204.14-.4.28-.6.42-.27.2-.54.4-.805.6-.5.39-.99.78-1.47 1.18-.58.47-1.15.95-1.72 1.43l-.43.36c-.42.343-.84.69-1.27 1.02-.16.12-.32.243-.48.36-.18.13-.36.25-.544.37l-.03.013-.03.02-.13-.15c-.14-.15-.27-.29-.41-.43-.27-.28-.558-.56-.848-.83-.92-.84-1.92-1.61-2.98-2.27-.77-.48-1.57-.91-2.39-1.28-.39-.17-.78-.33-1.18-.48l-.04-.06-.12-.2c-.13-.21-.27-.42-.42-.62-.18-.23-.365-.45-.56-.67-.25-.27-.51-.53-.78-.78-.29-.27-.6-.525-.91-.77-.71-.54-1.46-1.025-2.25-1.44-1.24-.64-2.565-1.12-3.934-1.39-.53-.1-1.072-.18-1.62-.22-.28-.02-.57-.03-.86-.03h-.18z" fill="#FFF"/><path d="M48.176 23.918l-.108.213-.007.02c.58.56.97 1.29 1.15 2.06.13.55.17 1.13.12 1.69-.06.75-.27 1.48-.55 2.17s-.65 1.33-1.04 1.95c-.61.96-1.29 1.89-2.13 2.66-.4.37-.86.7-1.35.92l-.07.14c-.29.56-.61 1.11-.95 1.64-.81 1.25-1.76 2.41-2.82 3.45-2.43 2.39-5.46 4.14-8.75 5.05-2.76.76-5.69.92-8.52.47-.7-.11-1.39-.26-2.08-.44-2.36 1.61-4.33 2.18-5.9 2.22-1.51.04-2.66-.41-3.45-.9-.09-.05-.17-.11-.25-.16-1.3.35-2.66.54-4 .42-.29-.03-.58-.06-.87-.12-.65-.12-1.29-.34-1.87-.65-.21-.11-.43-.23-.61-.39-.35-.29-.59-.69-.69-1.13-.05-.22-.06-.45-.05-.67.04-.64.27-1.26.55-1.83.49-1 1.15-1.93 1.83-2.8.95-1.22 2-2.37 3.08-3.48v-.01c-.27-.49-.53-.98-.77-1.49l-.03-.07c-1.05.31-2.44.5-2.77-.47-.51-1.53.61-1.15 1.81-1.8l.07-.03c-.23-.72-.42-1.46-.56-2.2-.09-.48-.17-.96-.23-1.44v-.03c-1-.71-1.9-1.54-2.66-2.51-.33-.42-.63-.86-.89-1.32-.28-.48-.52-.99-.71-1.51-.15-.42-.28-.85-.37-1.3-.07-.35-.13-.71-.15-1.07-.02-.28-.03-.56-.02-.85.01-.27.03-.53.07-.8.03-.2.07-.4.12-.6.04-.14.08-.28.13-.42.31-.89.9-1.76 1.82-2.11.22-.08.45-.12.68-.14.14 0 .14 0 .28.01.15.01.29.03.43.07.28.07.55.2.79.36.19.12.36.27.54.42l.35.29c.18.14.35.28.53.41.23.17.45.33.69.49.22-.48.45-.96.7-1.42.67-1.25 1.48-2.42 2.4-3.5.2-.23.41-.46.62-.69l-.03-.04c-.25-.34-.47-.7-.65-1.08-.92-1.95-.82-4.24-.14-6.24.37-1.07.91-2.11 1.63-2.99.12-.14.23-.27.36-.4.09-.1.19-.2.31-.28.12-.07.26-.11.4-.13.11 0 .11 0 .21.01.09.02.12.03.21.06.14.06.24.15.34.25.11.14.2.29.3.43.57.73 1.27 1.34 2.02 1.87.93.67 1.94 1.23 2.98 1.69.49.22.98.41 1.49.58.41.13.83.25 1.26.29.37.04.75 0 1.11-.05l.27-.03C21.42 6.05 20 5 20.33 1.52c6.4-.74 11.62 3.32 13.15 6.1 1.06.4 2.084.89 3.06 1.46 1.82 1.07 3.46 2.42 4.87 3.99 2.28-1.37 8.14-7.26 9.94-6.81 1.697.42 2.55 6.49-3.09 17.72z" fill="#FFF"/><path d="M9.82 37.88c-.278.29-.555.582-.828.878-.75.813-1.475 1.65-2.144 2.532-.347.457-.68.926-.98 1.416-.235.38-.454.776-.618 1.193-.087.22-.162.45-.185.68-.01.1-.02.22.036.31.02.02.04.03.06.05.85.56 1.91.76 2.9.77.19 0 .39 0 .58-.01.27-.02.54-.05.81-.08 1.24-.17 2.44-.56 3.58-1.05 1.47-.64 2.84-1.47 4.11-2.42.42-.31.82-.64 1.22-.97 0 0 .83-.39 1.85-1.29.47-.41 3.7 4.6 13.24 2.96 2.32-.4 4.7-2.25 6.29-3.98.84-.92 1.58-1.91 2.22-2.97-.1-.01-.21-.01-.32-.01-1.72-.13-3.45-.73-4.77-1.86-.25-.21-.47-.44-.69-.68-.21-.23-.39-.48-.56-.74-.32-.5-.57-1.05-.75-1.62-.13-.44-.23-.89-.28-1.34-.03-.28-.05-.56-.07-.83-.05-1.26.14-2.59.87-3.64.12-.18.26-.34.4-.5.2-.21.42-.39.65-.54.29-.19.6-.35.93-.46.48-.17.99-.25 1.5-.26.69-.02 1.38.1 2.04.31.5.17.97.4 1.46.58.09.03.17.06.26.08.06.01.12.02.18.02.06-.01.12-.03.18-.05.12-.04.23-.1.33-.16.26-.14.51-.3.78-.44.06-.03.11-.06.17-.08l.11-.05c.01-.01.02-.01.02-.02.93-.47 2.65-.47 3.66.51l-.01.01c.58.55.97 1.28 1.15 2.06.14.55.17 1.12.12 1.69-.07.74-.27 1.47-.56 2.16-.28.68-.65 1.32-1.04 1.94-.61.95-1.29 1.89-2.13 2.65-.4.37-.85.7-1.35.92l-.06.13c-.29.56-.61 1.11-.95 1.64-.81 1.25-1.75 2.41-2.82 3.45-2.43 2.39-5.46 4.14-8.75 5.04-2.76.76-5.69.92-8.52.47-.7-.11-1.39-.26-2.08-.45-2.37 1.61-4.33 2.18-5.9 2.21-1.51.04-2.66-.42-3.45-.9l-.25-.16c-1.3.35-2.66.54-4 .42-.3-.03-.59-.06-.87-.12-.65-.13-1.29-.34-1.88-.65-.21-.11-.43-.24-.61-.39-.36-.29-.6-.69-.7-1.14-.05-.22-.06-.44-.05-.66.03-.64.27-1.26.55-1.83.49-1.01 1.14-1.93 1.83-2.81.95-1.22 2-2.37 3.08-3.48-.28-.49-.54-.99-.77-1.5l-.03-.07c-1.05.31-2.45.49-2.77-.47-.51-1.53.6-1.15 1.8-1.81l.07-.04c-.23-.72-.41-1.46-.56-2.2-.09-.47-.17-.95-.23-1.43v-.04c-.99-.71-1.9-1.54-2.66-2.51-.33-.42-.63-.86-.89-1.32-.28-.48-.52-.99-.71-1.51-.16-.43-.28-.86-.38-1.3-.07-.36-.12-.71-.15-1.07-.02-.29-.03-.57-.02-.85.01-.27.04-.54.08-.81.03-.2.07-.4.12-.6.04-.14.08-.28.13-.42.31-.89.9-1.77 1.81-2.11.22-.08.44-.12.68-.14h.28c.14.01.28.03.42.07.29.07.55.2.8.36.19.12.36.27.54.42l.35.29c.18.14.36.28.53.41.23.17.46.33.69.48.22-.48.45-.95.7-1.41.68-1.24 1.48-2.42 2.4-3.49.2-.24.41-.47.63-.69l-.03-.05c-.25-.34-.47-.7-.65-1.08-.92-1.95-.82-4.24-.14-6.25.37-1.07.91-2.11 1.63-2.98.12-.14.23-.28.36-.4.09-.11.19-.21.31-.28.12-.08.25-.12.4-.14.1 0 .1 0 .21.01.09.02.11.02.2.06.14.06.24.15.34.25.1.14.2.29.3.43.56.72 1.27 1.33 2.01 1.86.93.66 1.94 1.23 2.98 1.69.49.22.98.41 1.49.57.41.13.83.25 1.26.29.37.04.75 0 1.12-.05l.26-.03c-2.35-.55-3.76-1.6-3.43-5.08C26.68.66 31.9 4.72 33.42 7.5c1.06.4 2.09.89 3.07 1.46 1.82 1.07 3.46 2.43 4.87 4 2.28-1.37 8.14-7.263 9.94-6.82 1.69.42 2.55 6.5-3.094 17.72-1.11-1.68-3.13-2.07-4.15-2.16l-.01-.02c-.33-1.27-.81-2.51-1.41-3.68-1.22-2.37-2.95-4.46-5.05-6.1-2.11-1.66-4.6-2.84-7.22-3.43-.97-.22-1.96-.36-2.96-.415-.47-.03-.94-.05-1.41-.03-.79.04-1.57.18-2.36.27-.2.03-.4.05-.61.06-.25.02-.51.03-.76.01-.43-.03-.86-.12-1.28-.24-.55-.15-1.09-.34-1.62-.56-.97-.39-1.91-.87-2.8-1.42-1.07-.66-2.08-1.42-2.94-2.34l-.06-.06c-.24.35-.46.72-.64 1.1-.13.28-.25.56-.35.84-.568 1.58-.71 3.43.03 4.98.1.21.22.42.35.61.2.3.43.57.69.82.86.83 1.98 1.32 3.12 1.64l.1.04c.13.067.5.257.35.26-3.51.05-6.14 2.15-6.14 2.15-.36.53-.68 1.08-.98 1.65-.22.426-.43.857-.62 1.29 2.4 1.33 5.05 2.2 7.75 2.65.21.037.67.15.48.35-.26.26-4.28 1.49-9.95-1.91-.69-.41-1.35-.874-1.98-1.37-.2-.15-.39-.31-.58-.47-.11-.084-.2-.173-.31-.26-.05-.04-.11-.07-.16-.1-.09-.05-.19-.09-.29-.09-.22 0-.41.18-.537.34-.03.04-.06.07-.08.11-.03.04-.05.08-.08.12-.04.07-.07.14-.11.22-.03.08-.07.16-.1.25s-.06.18-.08.28c-.03.14-.06.28-.08.42-.1.64-.06 1.3.05 1.94.21 1.1.68 2.14 1.31 3.05.7 1.01 1.59 1.865 2.58 2.585.21.15.41.29.64.43.98.63 2.03 1.14 3.11 1.56.41.16.83.3 1.25.43.57.18 1.15.34 1.73.48.64.15 1.28.28 1.93.39l.1.024c.13.04.24.1.34.19.07.06.13.13.17.21-4.23.98-6.89 1.13-7.74 1.15.21.88.75 2.29 1.31 3.46.25.53 1.18 2.4 1.3 2.57.13.19-.65.3-1.54-.37zm16.85-5.026c.24.023.444.12.612.292.078.09.143.19.213.288.068.093.14.184.21.275.56.69 1.204 1.32 1.965 1.8 1.12.7 2.43 1.03 3.75 1 .59-.02 1.18-.1 1.753-.25.224-.06.44-.14.663-.21.057-.02.056-.02.113-.03.17-.02.34 0 .5.07.43.2.64.73.45 1.17-.05.1-.11.2-.2.28-.1.09-.22.16-.34.21-.17.06-.34.11-.51.16-1.98.56-4.12.5-6.02-.31-.64-.28-1.24-.63-1.79-1.05-.63-.48-1.19-1.04-1.69-1.66-.12-.14-.23-.29-.34-.44-.08-.11-.16-.21-.22-.33-.22-.41-.08-.93.3-1.18.13-.09.28-.13.43-.15h.11zm12.942-6.674c1.157-.115 2.225 1.097 2.383 2.704.16 1.607-.65 3.004-1.808 3.118-1.157.115-2.225-1.097-2.384-2.704-.158-1.607.652-3.004 1.81-3.118zm5.864.202c.804 0 1.456.978 1.456 2.184 0 1.206-.652 2.185-1.456 2.185-.803 0-1.455-.97-1.455-2.18s.66-2.18 1.46-2.18zm-12.997-5.53c.29 1.296-.23 2.515-1.15 2.724-.93.208-1.92-.674-2.21-1.97-.29-1.297.22-2.516 1.14-2.724.92-.21 1.91.673 2.2 1.97zm7.2-2.31c.24 1.062-.19 2.06-.94 2.23-.76.17-1.57-.55-1.81-1.61-.24-1.063.18-2.06.94-2.232.76-.17 1.56.55 1.8 1.613z" fill="#FF4A87"/><text transform="translate(66 3)" font-size="35" font-family="AvenirNext-Bold, Avenir Next" fill="#FF3D7B" font-weight="bold"><tspan x=".468" y="35">Sneefr</tspan></text></g></svg>