<svg width="177" height="50" viewBox="0 0 177 50" xmlns="http://www.w3.org/2000/svg"><title>logo-sneefr</title><g fill="none" fill-rule="evenodd"><path d="M21.8 0c.33 0 .68 0 1.02.04.67.05 1.33.14 2 .27 1.37.3 2.72.78 3.98 1.42.83.42 1.6.9 2.35 1.45.66.48 1.28 1 1.84 1.6.4.4.78.86 1.12 1.33l.25.37.16.08.16.07 1.13.52c.68.34 1.35.7 2 1.12.9.57 1.74 1.2 2.54 1.9.4.34.77.7 1.13 1.05v.02c.46-.34.9-.7 1.32-1.05L44.24 9l.47-.4 1.7-1.35c.47-.35.93-.7 1.4-1.02.2-.14.42-.28.63-.4.2-.13.38-.24.57-.34l.57-.3.54-.2c.33-.1.65-.15.98-.15.22 0 .45.04.66.1.16.05.3.1.45.2.1.05.2.1.3.18l.2.17.16.17c.33.35.56.8.73 1.23l.07.22.1.3.1.47c.04.2.08.44.1.66.04.3.06.62.06.92.02.44 0 .87-.02 1.3-.02.45-.06.88-.12 1.3-.07.52-.16 1.02-.26 1.53-.1.57-.24 1.13-.38 1.68-.33 1.28-.74 2.54-1.2 3.78-.5 1.3-1.04 2.6-1.63 3.86-.17.4-.36.78-.55 1.17l-.02.03.03.05.03.05.07.13.15.26c.16.3.3.6.4.92.12.37.2.75.27 1.13.04.34.06.68.05 1.02 0 .28-.03.58-.07.87-.08.62-.24 1.24-.46 1.83l-.3.75c-.27.6-.6 1.17-.94 1.72-.2.33-.42.66-.65.98-.45.64-.94 1.25-1.5 1.8-.27.28-.57.54-.9.78l-.42.3-.22.14-.1.16-.1.17c-.1.2-.22.4-.34.6l-.5.8c-.9 1.34-1.94 2.58-3.1 3.7-1.25 1.17-2.63 2.2-4.12 3.06-1.36.78-2.8 1.42-4.3 1.9-2.65.82-5.46 1.13-8.23.9-.7-.04-1.4-.13-2.08-.25-.38-.05-.75-.13-1.12-.22h-.05l-.14.1-.1.06c-.25.15-.5.3-.75.43l-.56.3c-1.1.53-2.3.94-3.5 1.12l-.52.05-.84.03c-.32 0-.65-.03-.96-.07-.4-.04-.82-.13-1.22-.25-.34-.1-.68-.23-1-.38-.17-.07-.33-.15-.48-.24h-.02l-.12.02-.14.03c-.18.04-.37.08-.55.1-.4.08-.8.13-1.2.16-.45.04-.9.05-1.34.04-.34 0-.7-.04-1.04-.1-.4-.05-.8-.13-1.2-.24-.54-.15-1.06-.35-1.56-.62-.33-.17-.66-.36-.94-.6-.23-.2-.43-.42-.6-.66-.15-.22-.28-.45-.38-.7-.1-.25-.17-.5-.2-.76-.07-.4-.07-.84 0-1.25.04-.36.13-.72.25-1.06.1-.3.23-.6.36-.88.17-.38.38-.74.6-1.1.42-.7.9-1.38 1.42-2.03.47-.6.95-1.18 1.45-1.75l.6-.67.02-.02h-.5c-.22-.02-.42-.06-.62-.1-.2-.06-.4-.14-.6-.24-.25-.13-.47-.3-.66-.5-.16-.2-.3-.4-.4-.64l-.16-.45c-.06-.23-.1-.46-.13-.7 0-.26 0-.54.08-.8l.13-.3c.05-.1.12-.2.2-.32.1-.13.22-.26.35-.37.12-.1.25-.18.38-.25.1-.05.2-.1.32-.14l.24-.08-.03-.13-.05-.15c-.05-.2-.1-.4-.13-.6l-.2-1.1-.08-.06-.4-.32-.75-.68c-.72-.7-1.36-1.46-1.9-2.3-.2-.3-.36-.6-.53-.9l-.4-.8c-.45-1.04-.74-2.13-.84-3.23-.06-.6-.05-1.2 0-1.8l.1-.64.13-.5c.03-.15.08-.3.12-.42l.14-.36c.28-.7.68-1.33 1.22-1.84l.4-.33c.17-.1.35-.22.54-.32.24-.12.5-.22.76-.3l.53-.1H4.75l.14.03.34.07.4.12c.33.1.66.28.95.48l.27.2.17.15.25.2.03.05.08-.14.33-.55c.24-.4.48-.78.74-1.15.27-.4.55-.77.84-1.15l.46-.55-.05-.1-.18-.4c-.12-.25-.22-.5-.3-.8-.1-.24-.17-.5-.23-.77-.05-.2-.1-.4-.12-.6-.2-1.36-.1-2.77.23-4.1l.2-.72.3-.84c.2-.5.44-.97.7-1.43.3-.52.64-1 1.02-1.46l.37-.42.22-.22c.1-.1.2-.18.32-.25.18-.12.38-.22.6-.28l.42-.1.2-.02h.38l.15.02.1.02h.02c.05 0 .1.02.15.04.05 0 .1.03.15.05.16.06.3.14.45.24.1.06.17.13.25.2l.17.16.1.14.12.17.14.2.04.05c.2.25.4.5.64.7.27.26.55.5.84.7.52.4 1.05.73 1.62 1.05l.02.02-.02-.1-.02-.1c-.03-.2-.05-.4-.05-.6-.05-.54-.03-1.1.02-1.65l.1-.4c.16-.3.18-.4.46-.62.13-.08.24-.15.36-.2.13-.05.26-.06.4-.1h.03L20.2.2l1-.07H21.77V0zm-.1 1.47c-.23 0-.48 0-.72.02-.25 0-.5.02-.74.05v.12c-.06.54-.07 1.08 0 1.62.04.36.12.72.25 1.07.08.23.2.45.34.66.1.12.18.24.3.35l.2.2c.4.35.9.6 1.42.77l.22.07.3.1.4.08-.22.02-.5.05c-.2.02-.4.03-.62 0h-.2l-.27-.06c-.28-.05-.55-.13-.82-.2-.62-.2-1.23-.45-1.82-.73-.86-.4-1.7-.87-2.47-1.4-.1-.1-.22-.16-.33-.24-.66-.48-1.3-1.02-1.8-1.65l-.12-.14-.07-.1-.15-.22-.04-.05-.04-.05-.02-.02-.04-.04c-.05-.05-.1-.1-.17-.13l-.14-.07-.07-.02-.07-.02h-.1l-.07-.02H13.3l-.18.07-.16.08c-.08.05-.15.12-.2.2l-.16.14c-.17.18-.34.38-.5.6l-.3.42-.36.6c-.14.24-.27.5-.38.76-.14.3-.26.62-.37.94-.1.25-.17.5-.24.77-.05.17-.1.35-.12.53-.2 1.08-.25 2.2-.03 3.28l.1.45c.06.18.1.37.18.55.08.24.18.47.3.7.1.25.25.5.4.72l.22.3.02.03-.12.13-.12.13-.3.35-.6.7c-.68.87-1.3 1.8-1.83 2.76-.15.28-.3.55-.43.83l-.34.7-.18-.1-.5-.38-.15-.1-.27-.2-.13-.1-.18-.15-.37-.3-.08-.08-.24-.18c-.24-.16-.5-.3-.8-.37l-.2-.05-.23-.04h-.4l-.3.06-.36.12-.3.14-.16.1c-.4.3-.73.7-.96 1.14-.04.07-.08.14-.1.22-.06.1-.1.2-.14.3l-.16.47c-.06.2-.1.4-.13.6-.05.24-.07.5-.1.76-.02.44 0 .9.06 1.36.06.4.14.8.24 1.2.23.86.6 1.7 1.07 2.48.37.6.8 1.18 1.28 1.7.42.48.88.9 1.36 1.32.26.22.53.43.8.63l.03.16c.1.7.2 1.38.37 2.06.07.32.16.64.25.96.03.16.08.32.13.48l-.04.02-.1.04-.04.03c-.05.03-.1.06-.17.08-.1.05-.22.1-.33.12l-.54.17-.1.04-.12.03-.07.02-.08.03c-.1.05-.22.12-.3.2l-.03.05-.03.06c-.07.12-.08.26-.06.4v.06l.02.08.08.3c0 .04.03.1.05.13 0 .05.04.1.07.16l.14.16c.06.05.12.1.2.13.1.06.2.1.33.13.16.04.32.06.48.06.23 0 .44-.02.66-.06.23-.03.46-.08.68-.14l.2-.06.07.17.3.62.43.78-.26.26-.25.27c-.5.5-.96 1.02-1.42 1.55-.35.4-.7.8-1.02 1.23l-.8 1.06c-.2.27-.37.55-.55.83-.14.2-.28.44-.4.67-.1.16-.18.33-.26.5-.06.12-.1.25-.17.38-.04.1-.08.2-.1.3l-.1.27-.06.23-.04.2c-.06.38-.06.77.04 1.14 0 .06.04.12.06.2.04.1.1.2.16.3.08.14.18.27.3.4.16.15.36.28.56.4l.28.14c.43.22.9.4 1.37.5.7.2 1.44.26 2.17.25.74-.02 1.47-.1 2.2-.25l.92-.22.1.06c.12.07.25.15.4.22.27.15.55.28.85.4.34.1.68.2 1.03.26.25.05.5.08.76.1h.53c.14 0 .28 0 .4-.02 1-.07 1.95-.33 2.85-.7l.44-.2.6-.3c.25-.13.5-.26.73-.4l.92-.6.13.04c.37.1.73.18 1.1.26.66.13 1.32.23 2 .3 2.84.3 5.74-.03 8.45-.94 1.74-.58 3.4-1.4 4.9-2.44 1-.68 1.93-1.44 2.8-2.28 1.02-1 1.94-2.13 2.73-3.34.25-.38.5-.78.72-1.18l.2-.36.1-.2.08-.14.07-.03c.15-.07.3-.14.43-.23.37-.22.7-.5 1-.8.35-.32.65-.67.94-1.03.32-.4.62-.84.9-1.27.4-.6.78-1.24 1.08-1.9l.2-.46c.28-.75.47-1.54.5-2.34v-.32l-.04-.4c-.03-.27-.08-.54-.16-.8-.1-.32-.22-.62-.37-.9-.13-.23-.28-.45-.45-.66l-.25-.27.1-.23.14-.26.62-1.28c.47-1.02.93-2.06 1.34-3.1.4-1 .75-2 1.07-3 .3-.95.56-1.9.77-2.87.1-.43.17-.86.23-1.3.06-.4.1-.82.15-1.24.03-.35.05-.7.05-1.04 0-.32 0-.64-.03-.96 0-.2-.04-.43-.07-.64l-.12-.6c-.07-.24-.15-.5-.27-.72-.07-.15-.17-.3-.3-.42-.08-.1-.17-.17-.28-.22-.07-.03-.14-.06-.2-.07-.12-.02-.23-.02-.34 0-.17 0-.33.06-.5.1l-.2.1c-.1.03-.18.07-.27.12-.1.05-.2.1-.3.17-.15.07-.27.15-.4.22-.18.1-.36.22-.53.34l-.6.42-.8.6c-.5.4-1 .78-1.47 1.18l-1.72 1.43-.43.37c-.42.35-.84.7-1.27 1.02-.16.1-.32.24-.48.35l-.55.37-.03.02-.03.02-.14-.15-.4-.42-.86-.83c-.92-.84-1.92-1.6-2.98-2.27-.77-.48-1.57-.9-2.4-1.28-.38-.17-.77-.33-1.17-.48l-.04-.06-.1-.2-.43-.62c-.18-.23-.36-.45-.56-.67-.24-.27-.5-.53-.77-.78-.3-.28-.6-.54-.9-.78-.72-.54-1.47-1.03-2.26-1.44-1.24-.64-2.56-1.12-3.93-1.4-.53-.1-1.07-.17-1.62-.2-.28-.03-.57-.04-.86-.04h-.18l.13.13z" fill="#FFF"/><path d="M48.18 23.92l-.1.2-.02.03c.58.56.97 1.3 1.15 2.06.14.56.18 1.14.13 1.7-.06.75-.27 1.48-.55 2.17-.28.7-.65 1.33-1.04 1.95-.6.96-1.3 1.9-2.13 2.66-.4.37-.85.7-1.34.92l-.07.14c-.3.56-.62 1.1-.96 1.64-.8 1.25-1.76 2.4-2.82 3.45-2.43 2.4-5.46 4.14-8.75 5.05-2.76.76-5.7.92-8.52.47-.7-.1-1.4-.26-2.08-.44-2.36 1.62-4.33 2.2-5.9 2.23-1.5.04-2.66-.4-3.45-.9-.1-.05-.17-.1-.25-.16-1.3.35-2.66.54-4 .42-.3-.04-.58-.07-.87-.13-.65-.12-1.3-.34-1.87-.65-.2-.1-.43-.23-.6-.4-.36-.28-.6-.68-.7-1.12-.05-.22-.06-.45-.05-.67.04-.64.27-1.26.55-1.83.5-1 1.15-1.93 1.83-2.8.95-1.22 2-2.37 3.08-3.48-.27-.5-.53-1-.77-1.5l-.03-.07c-1.05.3-2.44.5-2.77-.47-.5-1.53.6-1.15 1.8-1.8l.08-.03c-.23-.72-.42-1.46-.56-2.2-.1-.48-.18-.96-.24-1.44v-.02c-1-.7-1.9-1.54-2.66-2.5-.33-.43-.63-.87-.9-1.33-.27-.48-.5-1-.7-1.5-.15-.43-.28-.86-.37-1.3-.07-.36-.13-.72-.15-1.08-.02-.28-.03-.56-.02-.85 0-.27.03-.53.07-.8l.12-.6.13-.42c.3-.9.9-1.76 1.82-2.1.22-.1.45-.13.68-.15h.28c.15.02.3.04.43.08.27.07.54.2.78.36.2.1.36.26.54.4l.35.3c.18.14.35.28.53.4.23.18.45.34.7.5.2-.48.44-.96.7-1.42.66-1.25 1.47-2.42 2.4-3.5l.6-.7-.02-.03c-.25-.34-.47-.7-.65-1.08-.92-1.95-.82-4.24-.14-6.24.36-1.07.9-2.1 1.62-3l.36-.4c.1-.1.2-.2.3-.27.13-.07.27-.1.4-.13h.22l.2.07c.15.06.25.15.35.25l.3.43c.57.73 1.27 1.34 2.02 1.87.93.67 1.94 1.23 2.98 1.7.5.2.98.4 1.5.57.4.13.82.25 1.25.3.37.03.75 0 1.1-.06l.28-.03C21.42 6.05 20 5 20.33 1.53c6.4-.75 11.62 3.3 13.15 6.1 1.06.4 2.08.88 3.06 1.45 1.82 1.07 3.46 2.42 4.87 4 2.3-1.38 8.15-7.27 9.95-6.82 1.7.42 2.55 6.5-3.1 17.72l-.07-.06z" fill="#FFF"/><path d="M9.82 37.88l-.83.88c-.76.8-1.48 1.65-2.15 2.53-.35.45-.68.92-.98 1.4-.24.4-.46.78-.62 1.2-.1.22-.16.45-.18.68-.02.1-.03.22.03.3.9.62 1.97.82 2.96.83h.58l.8-.08c1.25-.17 2.45-.56 3.6-1.05 1.46-.64 2.83-1.47 4.1-2.42.42-.3.82-.64 1.22-.97 0 0 .83-.4 1.85-1.3.48-.4 3.7 4.6 13.25 2.97 2.32-.4 4.7-2.25 6.3-3.98.83-.92 1.57-1.9 2.2-2.97h-.3c-1.73-.14-3.46-.74-4.78-1.87-.25-.2-.47-.44-.7-.68-.2-.23-.38-.48-.55-.74-.32-.5-.57-1.04-.75-1.6-.13-.45-.23-.9-.28-1.35-.04-.28-.06-.56-.08-.83-.05-1.26.14-2.6.87-3.64.1-.18.25-.34.4-.5.2-.2.4-.4.64-.54.3-.2.6-.35.93-.46.48-.17 1-.25 1.5-.26.7-.02 1.38.1 2.04.3.5.18.98.4 1.47.6l.26.07h.18c.07 0 .13-.02.2-.04l.32-.16c.26-.14.5-.3.78-.44.06-.03.1-.06.17-.08 1.06-.54 2.78-.54 3.8.44.56.56.95 1.3 1.13 2.07.14.54.17 1.1.12 1.68-.07.74-.27 1.47-.56 2.16-.28.68-.65 1.32-1.04 1.94-.6.95-1.3 1.9-2.13 2.65-.4.37-.86.7-1.36.92l-.06.13c-.3.56-.6 1.1-.95 1.64-.8 1.25-1.75 2.4-2.82 3.45-2.42 2.4-5.45 4.14-8.74 5.04-2.76.77-5.7.93-8.52.48-.7-.1-1.4-.26-2.08-.45-2.37 1.6-4.33 2.18-5.9 2.2-1.5.05-2.66-.4-3.45-.9l-.24-.15c-1.3.35-2.66.54-4 .42-.3-.03-.6-.06-.87-.12-.66-.13-1.3-.34-1.9-.65-.2-.1-.42-.24-.6-.4-.36-.28-.6-.68-.7-1.13-.05-.22-.06-.44-.05-.66.03-.64.27-1.26.55-1.83.5-1 1.14-1.92 1.83-2.8.95-1.22 2-2.37 3.08-3.48-.27-.5-.53-1-.76-1.5-1.08.24-2.48.42-2.8-.54-.5-1.53.6-1.15 1.8-1.8-.16-.77-.34-1.5-.5-2.25-.08-.47-.16-.95-.22-1.43-1-.75-1.9-1.58-2.66-2.55-.33-.42-.63-.86-.9-1.32-.27-.48-.5-1-.7-1.5-.16-.44-.28-.87-.38-1.3-.07-.37-.12-.72-.15-1.08-.02-.3-.03-.57-.02-.85.02-.27.05-.54.1-.8.02-.2.06-.4.1-.6l.14-.43c.3-.9.9-1.77 1.8-2.1.23-.1.45-.13.7-.15h.27c.15 0 .3.03.43.07.3.06.55.2.8.35.2.12.36.27.54.42l.35.3.53.4c.23.17.46.33.7.48.2-.48.44-.95.7-1.4.67-1.25 1.47-2.43 2.4-3.5.2-.24.4-.47.62-.7-.28-.38-.5-.74-.68-1.12-.93-1.95-.83-4.24-.15-6.25.37-1.07.9-2.1 1.63-2.98.12-.14.23-.28.36-.4l.3-.28c.13-.08.26-.12.4-.14h.22l.2.07c.14.06.24.15.34.25l.3.43c.56.72 1.27 1.33 2 1.86.94.65 1.95 1.22 3 1.68.48.22.97.4 1.48.57.4.13.83.25 1.26.3.37.03.75 0 1.12-.06l.26-.04c-2.35-.55-3.76-1.6-3.43-5.08C26.67.66 31.9 4.72 33.4 7.5c1.06.4 2.1.9 3.07 1.46 1.8 1.07 3.45 2.43 4.86 4 2.28-1.37 8.14-7.26 9.94-6.82 1.7.42 2.55 6.5-3.1 17.72-1.1-1.68-3.12-2.07-4.14-2.16-.34-1.3-.82-2.53-1.42-3.7-1.22-2.37-2.95-4.46-5.05-6.1-2.12-1.66-4.6-2.84-7.23-3.43-.97-.22-1.96-.36-2.96-.42-.46-.03-.93-.04-1.4-.03-.8.04-1.57.2-2.36.28l-.6.05c-.26.03-.52.04-.77.02-.43-.03-.86-.13-1.28-.24-.56-.16-1.1-.35-1.63-.57-.97-.38-1.9-.86-2.8-1.42-1.07-.65-2.08-1.42-2.94-2.33-.3.3-.52.67-.7 1.04-.13.3-.25.57-.35.84-.57 1.58-.7 3.44.03 4.98.1.2.23.43.36.62.2.3.43.57.7.82.85.83 1.97 1.3 3.1 1.63.24.1.6.3.46.3-3.5.06-6.14 2.15-6.14 2.15-.36.54-.68 1.1-.98 1.66-.22.42-.43.85-.62 1.3 2.4 1.3 5.05 2.18 7.75 2.63.2.04.67.16.48.36-.25.26-4.27 1.48-9.94-1.9-.7-.43-1.35-.9-1.98-1.4-.2-.13-.4-.3-.58-.45l-.3-.27c-.06-.03-.12-.05-.17-.1-.1-.04-.2-.07-.3-.07-.2 0-.4.18-.53.34l-.16.23-.1.2c-.04.1-.08.18-.1.27l-.1.28-.07.4c-.1.66-.06 1.32.05 1.96.2 1.1.68 2.14 1.3 3.05.7 1.02 1.6 1.87 2.6 2.6.2.14.4.28.63.42.98.63 2.03 1.14 3.1 1.56.42.16.84.3 1.26.43.58.18 1.16.34 1.74.48.64.15 1.28.28 1.93.4.23.05.34.1.44.2.08.06.14.13.18.2-4.23 1-6.9 1.14-7.74 1.16.2.88.75 2.3 1.3 3.46.26.53 1.2 2.4 1.3 2.57.14.2-.64.3-1.53-.37l-.08.12zm16.85-5.03c.24.03.44.12.6.3.1.1.16.2.23.28l.2.28c.57.7 1.2 1.33 1.97 1.8 1.12.7 2.43 1.04 3.75 1 .6 0 1.18-.1 1.75-.24l.67-.2.1-.04c.18-.02.35 0 .5.07.44.2.65.72.46 1.16-.05.1-.1.2-.2.28-.1.1-.22.16-.34.2-.17.07-.34.12-.5.17-2 .57-4.13.5-6.03-.3-.64-.28-1.24-.63-1.8-1.05-.62-.48-1.18-1.04-1.68-1.66l-.34-.45c-.07-.1-.15-.2-.2-.33-.23-.4-.1-.93.3-1.18.12-.1.27-.13.42-.15h.1l.05.05zm12.94-6.67c1.17-.1 2.24 1.1 2.4 2.7.16 1.6-.66 3-1.8 3.12-1.17.12-2.24-1.1-2.4-2.7-.15-1.6.66-3 1.8-3.12zm5.88.2c.8 0 1.45.98 1.45 2.2 0 1.2-.65 2.17-1.45 2.17-.8 0-1.46-.97-1.46-2.18 0-1.2.66-2.18 1.46-2.18v-.02zm-13-5.53c.3 1.3-.23 2.52-1.15 2.73-.93.2-1.92-.68-2.2-1.97-.3-1.3.2-2.5 1.13-2.72.92-.2 1.9.68 2.2 1.97h.02zm7.2-2.3c.24 1.05-.2 2.05-.94 2.22-.76.17-1.57-.55-1.8-1.6-.25-1.07.17-2.07.93-2.24.76-.17 1.56.55 1.8 1.6z" fill="#00324D"/><text transform="translate(66 3)" font-size="35" font-family="AvenirNext-Bold, Avenir Next" fill="#FFF" font-weight="bold"><tspan x=".47" y="35">Sneefr</tspan></text></g></svg>