<svg width="54" height="50" viewBox="0 0 54 50" xmlns="http://www.w3.org/2000/svg"><title>logo-sneefr</title><g fill="none" fill-rule="evenodd"><path d="M21.7877 0c.3447.0012.6892.0133 1.033.0383.666.0476 1.3284.1403 1.982.2754 1.3878.287 2.7343.766 3.998 1.4065.8213.4157 1.6084.9 2.3492 1.4467.653.483 1.272 1.015 1.84 1.597.406.418.787.862 1.127 1.336.086.12.169.243.249.367l.007.011.152.062.157.066c.384.163.765.337 1.14.521.682.336 1.347.709 1.99 1.117.895.567 1.748 1.201 2.551 1.894.387.334.762.682 1.125 1.042l.009.009c.443-.342.876-.695 1.308-1.051.475-.392.947-.787 1.421-1.181.155-.129.309-.257.465-.385.56-.461 1.123-.918 1.697-1.362.454-.351.914-.693 1.388-1.017.206-.141.415-.279.628-.41.187-.117.378-.229.571-.334.186-.101.375-.196.569-.281.176-.078.356-.147.54-.204.314-.098.64-.16.969-.157.222.001.444.033.658.097.153.046.302.109.443.186.103.056.203.121.297.192.07.052.137.109.202.168.057.053.111.108.164.164.326.354.56.784.728 1.233.026.071.051.143.075.215.032.098.061.197.088.297.041.155.077.311.108.469.043.222.076.446.101.672.034.306.054.612.062.92.011.434 0 .868-.028 1.302-.028.434-.073.867-.13 1.298-.068.508-.155 1.014-.256 1.517-.112.559-.242 1.114-.386 1.665-.335 1.279-.746 2.538-1.208 3.777-.488 1.308-1.034 2.594-1.621 3.86-.182.392-.369.782-.559 1.17l-.019.039.032.047.027.042c.027.043.054.085.081.128.052.086.102.173.15.261.158.292.29.598.396.913.124.369.212.75.265 1.136.046.336.065.676.06 1.016-.004.293-.026.587-.066.878-.084.626-.244 1.24-.46 1.833-.092.254-.195.504-.306.75-.271.595-.595 1.165-.944 1.718-.209.33-.424.656-.649.976-.45.638-.94 1.25-1.496 1.799-.284.281-.583.545-.903.783-.141.105-.286.204-.434.297-.076.048-.153.094-.23.138l-.011.007-.09.163c-.031.055-.061.11-.092.165-.114.202-.231.403-.351.602-.161.268-.329.532-.503.792-.893 1.341-1.937 2.582-3.105 3.691-1.24 1.179-2.622 2.209-4.104 3.064-1.359.784-2.803 1.421-4.3 1.891-2.652.834-5.466 1.141-8.236.916-.693-.056-1.383-.145-2.068-.268-.375-.067-.748-.144-1.118-.231l-.044-.01-.149.093-.117.072c-.245.148-.493.292-.745.429-.185.1-.372.197-.56.29-1.105.543-2.284.954-3.505 1.127-.171.024-.343.044-.515.059-.279.024-.559.034-.838.031-.322-.003-.643-.026-.962-.067-.412-.054-.82-.141-1.218-.26-.345-.103-.682-.231-1.009-.382-.161-.075-.32-.155-.476-.24l-.017-.01-.12.027-.137.029c-.183.038-.367.074-.551.105-.396.068-.795.119-1.196.151-.443.035-.888.047-1.332.032-.353-.012-.706-.04-1.057-.088-.405-.055-.808-.136-1.202-.246-.541-.15-1.067-.353-1.563-.615-.331-.174-.655-.367-.942-.609-.225-.191-.425-.41-.594-.652-.154-.219-.281-.455-.38-.703-.098-.245-.168-.501-.209-.762-.066-.412-.062-.832-.005-1.244.05-.363.141-.719.26-1.064.103-.3.227-.592.364-.878.18-.376.382-.743.599-1.1.429-.707.918-1.376 1.427-2.028.465-.596.951-1.175 1.452-1.742.199-.225.4-.447.603-.668l.017-.018c-.019 0-.037.001-.056.001h-.075c-.103-.001-.205-.004-.307-.013-.205-.016-.409-.049-.608-.103-.209-.055-.411-.134-.601-.236-.246-.133-.469-.306-.655-.513-.167-.186-.304-.398-.407-.626-.065-.145-.115-.297-.158-.449-.066-.228-.113-.461-.13-.698-.019-.269.003-.541.077-.801.029-.102.067-.202.111-.298.054-.116.119-.227.195-.331.104-.143.227-.271.364-.383.118-.096.247-.18.382-.251.102-.054.207-.101.315-.142.079-.031.159-.058.24-.085l.003-.001-.032-.132-.035-.149c-.046-.199-.089-.398-.13-.598-.073-.364-.137-.73-.192-1.097l-.088-.068c-.132-.105-.263-.212-.392-.321-.259-.219-.511-.447-.754-.683-.713-.693-1.354-1.462-1.894-2.298-.188-.291-.364-.591-.527-.897-.14-.265-.27-.536-.39-.811-.44-1.017-.731-2.102-.831-3.207-.054-.599-.052-1.203.016-1.8.027-.212.059-.423.1-.632.034-.174.074-.347.121-.518.037-.137.078-.273.124-.407.041-.121.086-.241.134-.36.28-.684.684-1.325 1.223-1.834.124-.117.255-.228.393-.329.171-.127.353-.24.543-.337.241-.124.496-.223.759-.291.176-.045.355-.0778.536-.0988.052-.006.104-.011.156-.016.024-.002.049-.005.074-.006.032-.002.065-.001.097-.002.046-.001.092-.001.138 0 .046 0 .092.002.138.004.033.001.065.002.098.004.026.002.052.006.078.009.048.006.095.012.142.0184.118.017.236.038.352.065.137.032.273.073.406.12.337.12.657.285.954.485.096.064.188.132.278.203.056.044.112.09.166.135.084.07.167.141.25.212l.039.032c.025-.046.051-.092.0765-.138.1045-.186.2115-.371.3215-.554.232-.387.476-.766.732-1.138.269-.391.551-.773.846-1.146.147-.186.297-.369.449-.55-.016-.029-.032-.059-.047-.089-.068-.132-.133-.265-.194-.4-.117-.2603-.221-.527-.31-.799-.085-.258-.158-.52-.217-.785-.044-.194-.081-.39-.112-.587-.213-1.366-.11-2.772.229-4.109.061-.24.129-.478.205-.713.091-.284.193-.564.305-.84.199-.493.431-.973.697-1.434.294-.509.629-.995 1.007-1.446.12-.144.244-.284.373-.419.073-.077.146-.153.224-.2255.1-.092.207-.177.32-.252.184-.121.385-.214.595-.278.142-.044.288-.073.435-.094l.18-.011c.064-.001.128-.001.192.001.064.003.128.009.192.015l.166.027.0986.022.03.008c.051.013.101.027.151.043.05.017.099.035.148.055.16.0657.313.148.454.2467.087.061.17.127.248.198.057.052.111.105.164.161l.12.141c.04.054.079.109.118.164.048.068.094.137.142.205.009.013.018.027.028.04.197.252.416.486.649.705.262.247.541.475.829.69.515.384 1.059.73 1.62 1.044l.024.014c-.006-.031-.011-.062-.016-.092l-.018-.113c-.028-.193-.049-.387-.062-.583-.037-.552-.017-1.106.034-1.658l.09-.389c.169-.307.187-.415.472-.636.1056-.081.223-.149.346-.199.1237-.05.258-.067.387-.098.013-.003.0267-.003.04-.004.041-.005.083-.0094.1245-.014.328-.033.657-.056.986-.068.162-.006.324-.009.486-.01h.081zm-.0757 1.4665c-.2443.0012-.4884.0085-.7322.0226-.2485.015-.4965.037-.7438.065-.0038.041-.0074.081-.0108.121-.044.539-.0547 1.084.009 1.622.0437.37.1233.737.258 1.085.0904.233.2058.456.348.662.087.126.1835.244.2887.354.067.072.139.139.213.204.411.356.908.597 1.418.775.074.026.148.05.223.074.102.032.205.062.309.09.125.034.25.065.376.095-.067.009-.134.017-.201.024-.161.019-.323.039-.484.053-.21.019-.421.028-.631.012-.064-.005-.127-.012-.19-.021-.094-.012-.187-.028-.28-.047-.278-.055-.552-.132-.822-.217-.622-.195-1.227-.442-1.817-.717-.858-.399-1.686-.866-2.466-1.403-.109-.075-.217-.151-.324-.229-.661-.48-1.285-1.02-1.803-1.653-.037-.044-.073-.089-.108-.135-.027-.034-.051-.07-.076-.105-.05-.071-.098-.142-.148-.213-.013-.017-.025-.035-.038-.053l-.038-.052c-.001-.001-.018-.019-.019-.019-.013-.013-.025-.026-.038-.038-.051-.048-.105-.093-.165-.131-.043-.027-.088-.05-.135-.069-.021-.008-.042-.016-.064-.023-.022-.007-.045-.011-.067-.017-.009-.001-.018-.003-.027-.005-.011-.002-.021-.005-.032-.007-.012-.002-.024-.002-.036-.003-.024-.002-.047-.005-.071-.006-.024-.001-.047 0-.071 0h-.036c-.005 0-.009.001-.014.002-.009.002-.018.003-.027.004-.027.004-.053.009-.079.015-.06.013-.119.03-.176.054-.054.022-.105.05-.152.084-.078.055-.147.123-.213.191-.049.051-.098.103-.146.155-.175.191-.339.391-.494.598-.107.143-.209.289-.307.437-.128.194-.248.393-.36.596-.139.25-.266.506-.383.767-.138.308-.26.622-.368.942-.085.252-.161.508-.226.766-.045.178-.086.358-.121.538-.211 1.079-.242 2.2-.03 3.281.029.146.062.292.1.437.049.185.105.369.169.549.084.239.182.472.293.699.122.249.259.49.41.721.07.107.143.211.219.314l.016.022-.119.128c-.04.043-.079.086-.118.129-.105.115-.208.231-.309.349-.2.23-.394.465-.583.704-.686.868-1.301 1.793-1.836 2.762-.149.269-.29.541-.426.817-.116.236-.227.475-.334.715-.058-.04-.116-.079-.173-.119-.173-.12-.344-.242-.513-.366l-.134-.101c-.089-.068-.177-.136-.265-.205-.022-.018-.11-.086-.132-.104-.059-.047-.117-.095-.175-.142-.124-.102-.246-.207-.369-.311-.027-.023-.055-.045-.082-.068-.078-.062-.157-.123-.24-.179-.24-.162-.505-.29-.784-.369-.069-.02-.139-.036-.21-.048-.079-.014-.158-.025-.238-.034-.038-.002-.076-.004-.114-.005-.041-.001-.081-.001-.122 0-.016 0-.031 0-.047.001-.003 0-.04.004-.044.004l-.087.009c-.1.012-.2.028-.298.052-.122.029-.241.069-.356.119-.097.041-.191.09-.281.144-.058.034-.114.071-.169.11-.41.291-.727.696-.964 1.136-.039.073-.076.147-.111.222-.047.1017-.091.205-.131.3098-.058.152-.108.307-.152.464-.054.195-.098.393-.132.593-.043.253-.071.508-.085.764-.025.458-.006.918.05 1.373.05.403.129.803.235 1.195.237.875.604 1.714 1.07 2.491.368.611.797 1.185 1.273 1.717.421.469.878.906 1.362 1.309.264.2196.537.429.816.63l.021.174c.089.694.213 1.383.374 2.064.077.324.161.645.253.965.046.159.095.318.144.477l-.044.021c-.027.014-.055.029-.082.0435l-.056.028c-.055.027-.11.053-.167.078-.106.046-.215.087-.325.125-.179.062-.361.113-.542.168-.036.011-.073.023-.109.034-.035.012-.07.023-.104.035l-.078.03c-.025.01-.05.02-.074.031-.112.051-.221.117-.299.214-.012.015-.023.031-.034.047-.012.019-.023.039-.032.059-.058.124-.065.265-.053.3996.002.022.005.043.008.064.003.028.008.055.013.082.018.1.044.198.074.295.015.048.03.0962.048.143.022.056.048.1092.08.16.039.063.086.121.139.1723.055.053.116.099.182.138.106.062.222.106.342.137.154.038.313.055.472.059.217.005.435-.015.649-.047.23-.035.458-.085.682-.145.067-.018.134-.037.201-.057.025.055.05.109.076.163.097.206.197.4106.302.613.136.265.278.527.423.787l.002.004c-.085.087-.169.174-.253.261-.084.087-.168.1745-.251.262-.485.509-.96 1.0265-1.42 1.557-.35.402-.691.8115-1.022 1.229-.273.3445-.54.694-.796 1.051-.194.271-.381.546-.558.828-.139.222-.273.448-.398.679-.089.1644-.175.331-.255.5-.06.1263-.117.2543-.17.384-.042.1023-.081.206-.117.31-.029.086-.056.172-.081.259-.022.077-.042.155-.059.233-.015.0683-.029.137-.04.2062-.061.373-.065.761.035 1.127.019.068.041.135.066.201.043.111.096.219.158.321.085.138.185.266.3.379.165.163.359.292.56.407.093.053.187.104.282.153.434.2224.895.3904 1.368.51.71.18 1.445.252 2.177.246.737-.006 1.473-.093 2.196-.238.31-.063.617-.136.922-.218.03.02.06.04.091.06.128.083.258.162.392.235.276.152.564.283.86.39.331.121.672.212 1.019.275.25.045.503.075.757.091.182.011.365.015.547.011.137-.002.274-.009.411-.019.979-.073 1.936-.339 2.84-.714.147-.061.292-.125.436-.1914.202-.093.403-.192.6-.295.246-.129.488-.265.727-.406.313-.186.62-.383.921-.588.042.012.085.023.128.034.364.095.731.181 1.101.256.655.133 1.317.233 1.983.3 2.844.287 5.749-.028 8.46-.94 1.738-.585 3.394-1.412 4.911-2.444.989-.674 1.919-1.436 2.774-2.274 1.029-1.009 1.95-2.13 2.741-3.335.253-.386.492-.782.718-1.184.068-.121.135-.242.2-.364.038-.07.075-.14.112-.21.023-.043.045-.087.068-.131l.069-.032c.147-.07.29-.1473.428-.2323.368-.226.703-.4998 1.015-.797.334-.319.643-.665.931-1.027.321-.405.617-.828.9-1.26.401-.614.78-1.245 1.081-1.914.067-.148.129-.298.188-.449.288-.747.479-1.539.498-2.342.003-.107.002-.213-.002-.319-.004-.133-.014-.266-.028-.398-.031-.277-.084-.5517-.162-.819-.091-.311-.215-.612-.372-.896-.129-.234-.28-.456-.453-.66-.0794-.095-.164-.186-.253-.273l-.013-.013c.038-.077.077-.153.115-.229.044-.087.088-.175.132-.262.211-.426.4185-.853.62-1.283.481-1.024.934-2.061 1.351-3.1127.39-.984.749-1.98 1.064-2.99.296-.944.554-1.9.758-2.868.091-.43.171-.862.238-1.297.063-.411.114-.825.15-1.239.029-.345.048-.6908.053-1.036.004-.321-.003-.642-.027-.962-.017-.213-.04-.426-.073-.637-.032-.199-.072-.397-.124-.591-.068-.251-.154-.499-.276-.729-.08-.152-.176-.297-.295-.422-.085-.089-.1816-.167-.291-.223-.066-.033-.135-.059-.206-.075-.111-.024-.225-.023-.336-.01-.169.02-.335.066-.494.124-.066.023-.131.049-.195.076-.093.039-.184.081-.275.126-.111.054-.22.112-.328.172-.13.072-.2586.148-.385.226-.179.11-.355.225-.529.342-.202.137-.402.277-.599.421-.271.197-.539.399-.805.603-.498.386-.989.782-1.476 1.181-.578.474-1.15.953-1.725 1.431-.144.119-.287.238-.431.357-.418.344-.838.686-1.267 1.016-.16.123-.321.244-.484.3615-.177.1274-.357.251-.5426.366l-.028.017-.027.016-.132-.1466c-.133-.146-.267-.29-.404-.4325-.274-.285-.557-.561-.847-.829-.9196-.85-1.917-1.614-2.9776-2.279-.768-.4813-1.569-.91-2.395-1.283-.388-.175-.78-.337-1.178-.487-.012-.022-.0245-.044-.037-.0653-.038-.067-.077-.133-.117-.199-.13-.212-.272-.418-.422-.616-.1757-.232-.362-.456-.557-.672-.247-.274-.507-.535-.778-.786-.293-.271-.598-.528-.913-.772-.703-.545-1.457-1.026-2.246-1.438-1.233-.649-2.56-1.125-3.93-1.394-.535-.105-1.077-.179-1.621-.219-.285-.022-.571-.033-.858-.037-.06-.001-.12-.001-.181-.001z" fill="#FFF"/><path d="M48.1765 23.9175c-.0303.0604-.067.1323-.108.2136l-.0077.016c.5718.554.9627 1.285 1.1485 2.059.1322.553.1632 1.126.1133 1.691-.066.746-.27 1.475-.5554 2.166-.2825.683-.6492 1.323-1.047 1.945-.6104.954-1.289 1.893-2.132 2.656-.4055.367-.8577.693-1.3566.916-.0225.044-.0455.088-.068.132-.2955.56-.6106 1.109-.9543 1.641-.808 1.25-1.7554 2.411-2.818 3.453-2.4337 2.388-5.4664 4.142-8.754 5.044-2.7653.759-5.6918.916-8.5234.468-.701-.111-1.396-.26-2.08-.445-2.367 1.612-4.33 2.177-5.901 2.214-1.511.036-2.658-.418-3.452-.901-.088-.053-.172-.107-.251-.16-1.3.352-2.658.536-4.001.423-.292-.024-.582-.063-.869-.118-.652-.125-1.29-.336-1.876-.648-.213-.113-.428-.236-.616-.388-.354-.288-.596-.687-.693-1.133-.048-.218-.062-.443-.05-.666.035-.64.268-1.259.546-1.83.489-1.005 1.147-1.927 1.833-2.805.954-1.221 1.997-2.371 3.08-3.479l-.003-.005c-.275-.489-.534-.985-.77-1.495l-.031-.067c-1.049.311-2.443.494-2.768-.474-.513-1.531.605-1.15 1.805-1.806.023-.012.047-.024.07-.035-.229-.724-.416-1.461-.561-2.207-.093-.475-.168-.953-.226-1.434l-.004-.04c-.994-.712-1.897-1.544-2.659-2.512-.328-.416-.628-.855-.892-1.315-.279-.484-.518-.99-.712-1.514-.157-.423-.284-.858-.376-1.299-.074-.353-.126-.712-.154-1.072-.022-.283-.029-.567-.02-.851.009-.268.033-.536.073-.801.031-.202.071-.402.122-.6.037-.143.079-.285.127-.425.309-.892.897-1.767 1.814-2.11.22-.083.445-.122.679-.14.141-.002.141-.002.282.005.143.016.282.036.422.074.282.076.548.204.792.365.191.126.36.277.535.424.148.125.198.165.348.287.175.139.351.275.529.41.226.165.454.327.686.484.214-.48.445-.953.696-1.416.677-1.245 1.485-2.418 2.406-3.494.202-.236.41-.467.622-.693l-.033-.044c-.25-.34-.467-.703-.648-1.084-.925-1.952-.825-4.239-.136-6.246.369-1.075.909-2.108 1.632-2.987.114-.139.231-.273.355-.402.095-.101.191-.204.31-.277.126-.077.258-.111.403-.13.107-.002.106-.002.213.009.092.02.117.022.205.059.136.057.24.146.341.252.103.139.195.285.298.424.565.727 1.268 1.331 2.015 1.864.93.663 1.934 1.226 2.977 1.69.485.216.98.411 1.487.572.41.131.831.245 1.26.292.369.04.751-.008 1.117-.05.089-.01.178-.021.267-.032-2.348-.55-3.759-1.604-3.433-5.079 6.397-.736 11.617 3.321 13.14 6.105 1.06.4 2.086.889 3.064 1.462 1.822 1.068 3.467 2.423 4.868 3.995 2.284-1.372 8.144-7.265 9.946-6.818 1.693.42 2.552 6.494-3.094 17.721z" fill="#FFF"/><path d="M9.8214 37.8792c-.2798.2898-.5563.5827-.8294.8788-.7495.813-1.4745 1.651-2.1438 2.5316-.3475.4572-.6807.9267-.981 1.4163-.2342.381-.4528.776-.6173 1.193-.087.219-.162.45-.186.686-.01.097-.021.226.036.314.014.019.033.034.052.049.843.566 1.905.76 2.902.771.191.002.383-.003.574-.014.27-.016.539-.043.806-.08 1.234-.172 2.434-.553 3.575-1.048 1.46-.634 2.834-1.465 4.108-2.418.415-.311.817-.638 1.214-.972 0 0 .829-.389 1.849-1.285.467-.41 3.705 4.606 13.236 2.96 2.316-.4 4.696-2.244 6.288-3.975.84-.913 1.582-1.909 2.221-2.969-.107-.004-.214-.005-.321-.01-1.718-.127-3.453-.731-4.776-1.855-.247-.21-.476-.439-.691-.682-.206-.232-.391-.483-.559-.744-.323-.503-.573-1.051-.75-1.621-.135-.436-.229-.885-.286-1.338-.035-.277-.057-.555-.069-.833-.052-1.257.133-2.586.864-3.642.12-.174.254-.338.401-.491.196-.204.415-.386.651-.542.288-.19.601-.341.927-.454.48-.165.987-.245 1.494-.254.695-.014 1.385.101 2.044.319.499.165.97.398 1.461.585.085.031.17.058.259.081.057.011.116.024.175.02.062-.005.123-.026.181-.048.114-.044.223-.102.331-.161.259-.144.512-.299.773-.44.055-.029.109-.056.164-.083.035-.016.071-.034.108-.053.008-.004.017-.008.026-.012l-.001-.001c.93-.463 2.649-.468 3.658.517l-.008.015c.572.554.963 1.284 1.148 2.058.133.552.164 1.126.113 1.691-.066.746-.27 1.475-.555 2.165-.283.683-.649 1.323-1.047 1.945-.611.954-1.289 1.892-2.132 2.655-.405.367-.858.692-1.357.916l-.068.131c-.296.56-.611 1.108-.955 1.64-.808 1.25-1.756 2.41-2.818 3.452-2.434 2.387-5.467 4.141-8.755 5.044-2.765.759-5.692.916-8.524.467-.701-.111-1.395-.26-2.08-.445-2.366 1.612-4.33 2.177-5.9 2.214-1.51.035-2.658-.418-3.452-.901-.088-.054-.172-.108-.251-.161-1.3.351-2.658.535-4.001.423-.291-.025-.582-.064-.869-.119-.652-.125-1.289-.336-1.876-.648-.213-.114-.428-.236-.616-.389-.354-.287-.595-.687-.692-1.132-.048-.219-.062-.444-.05-.667.035-.64.268-1.26.546-1.831.489-1.005 1.147-1.928 1.833-2.806.954-1.221 1.998-2.371 3.08-3.479l-.003-.005c-.274-.49-.534-.986-.77-1.495-.011-.023-.021-.045-.031-.068-1.049.311-2.444.494-2.768-.473-.514-1.532.604-1.151 1.805-1.807.023-.013.047-.025.07-.035-.229-.724-.416-1.462-.561-2.207-.093-.475-.168-.954-.226-1.434l-.005-.039c-.993-.713-1.897-1.545-2.659-2.513-.328-.417-.628-.856-.892-1.315-.278-.484-.518-.991-.712-1.514-.157-.423-.284-.858-.376-1.3-.074-.354-.126-.712-.154-1.072-.022-.283-.029-.567-.02-.851.009-.268.033-.536.073-.801.031-.202.071-.402.122-.6.037-.144.079-.285.127-.425.309-.892.898-1.767 1.814-2.11.221-.083.445-.122.679-.14.141-.002.14-.002.282.004.143.016.282.036.422.074.282.077.549.204.792.365.191.126.361.277.535.425.148.125.197.164.347.286.175.138.351.275.529.409.226.165.454.327.686.484.215-.48.445-.953.697-1.416.677-1.245 1.484-2.418 2.406-3.495.202-.236.41-.467.622-.693l-.032-.045c-.25-.339-.468-.703-.648-1.084-.925-1.951-.825-4.239-.136-6.246.368-1.074.909-2.108 1.632-2.987.113-.138.231-.272.355-.402.095-.101.191-.205.31-.277.126-.077.258-.111.403-.13.107-.002.106-.002.213.009.092.021.117.022.205.059.136.057.24.145.341.251.103.139.196.285.298.424.565.726 1.268 1.331 2.015 1.863.929.663 1.934 1.227 2.977 1.69.485.216.98.41 1.486.572.41.13.832.245 1.26.291.369.04.751-.008 1.117-.05.09-.01.179-.021.268-.032-2.348-.549-3.759-1.604-3.433-5.079C26.57.759 31.79 4.816 33.313 7.6c1.06.3994 2.0864.889 3.0645 1.462 1.822 1.0676 3.4664 2.4226 4.868 3.995 2.2843-1.37 8.144-7.2635 9.947-6.8168 1.6924.42 2.5512 6.494-3.0947 17.722-1.103-1.675-3.1264-2.067-4.147-2.156l-.0054-.022c-.3343-1.273-.8074-2.509-1.4075-3.68-1.215-2.368-2.946-4.462-5.041-6.1014-2.118-1.6573-4.6-2.84-7.224-3.4324-.974-.2192-1.966-.3592-2.963-.418-.468-.027-.939-.045-1.408-.025-.79.034-1.573.176-2.357.271-.203.022-.406.042-.61.057-.257.016-.512.027-.769.007-.434-.034-.862-.127-1.281-.2406-.554-.15-1.095-.343-1.626-.56-.968-.396-1.904-.874-2.795-1.421-1.072-.657-2.079-1.4203-2.94-2.34l-.062-.0684c-.243.351-.459.719-.644 1.1033-.132.275-.249.556-.352.843-.566 1.583-.71 3.429.026 4.983.101.2133.219.42.35.616.199.296.431.569.689.815.867.8283 1.983 1.3185 3.123 1.6435l.103.036c.133.066.497.256.346.258-3.509.047-6.14 2.15-6.14 2.15-.355.532-.683 1.082-.98 1.6478-.223.4223-.428.853-.617 1.2915 2.397 1.3282 5.046 2.197 7.743 2.648.214.034.673.152.481.349-.252.258-4.276 1.488-9.95-1.912-.689-.4123-1.347-.8752-1.979-1.3702-.195-.153-.387-.309-.576-.469-.103-.087-.202-.176-.308-.2575-.052-.036-.103-.069-.158-.0993-.091-.045-.186-.084-.289-.086-.223-.0035-.407.1743-.535.337-.028.036-.053.0705-.078.1085-.029.043-.05.078-.076.123-.04.071-.077.1433-.11.218-.037.082-.07.166-.099.251-.032.093-.06.187-.084.282-.036.139-.064.2803-.086.423-.097.6413-.065 1.301.054 1.9372.206 1.0983.677 2.138 1.311 3.0542.701 1.0124 1.586 1.8674 2.575 2.5866.213.155.411.29.636.435.978.629 2.036 1.14 3.11 1.5524.413.159.832.304 1.254.4376.572.1803 1.151.3384 1.734.4773.64.1525 1.284.2775 1.932.3916l.097.022c.128.045.243.1.346.191.069.061.127.133.173.21-4.231.982-6.896 1.129-7.744 1.15.208.881.747 2.289 1.306 3.461.252.529 1.182 2.403 1.302 2.569.137.19-.647.302-1.539-.368zm16.8495-5.0248c.24.0223.443.1192.611.292.077.0905.142.1908.213.287.068.0933.138.1847.209.276.56.699 1.204 1.323 1.965 1.8008 1.121.7033 2.431 1.0346 3.75 1.001.591-.0152 1.18-.0993 1.752-.2486.224-.0586.441-.1367.663-.206.057-.0138.056-.0136.113-.0236.175-.0195.347 0 .508.0747.436.2025.639.7305.45 1.173-.046.1066-.112.2042-.194.286-.098.0972-.213.164-.341.2132-.17.059-.34.115-.512.165-1.973.559-4.117.507-6.014-.308-.638-.274-1.24-.63-1.791-1.051-.628-.479-1.19-1.04-1.686-1.654-.115-.142-.226-.287-.334-.434-.077-.105-.16-.209-.221-.324-.214-.407-.08-.924.303-1.176.131-.087.278-.13.434-.146.057-.002.057-.002.115 0zm12.941-6.6748c1.156-.1144 2.225 1.0974 2.383 2.7042.159 1.6068-.652 3.0042-1.809 3.1185-1.157.1144-2.225-1.0974-2.384-2.7042-.159-1.606.652-3.004 1.808-3.118zm5.864.202c.803 0 1.455.9788 1.455 2.1844 0 1.2057-.652 2.1846-1.456 2.1846-.803 0-1.456-.979-1.456-2.1846s.652-2.1845 1.455-2.1845zm-12.997-5.5304c.291 1.2963-.224 2.5156-1.149 2.7247-.925.207-1.913-.675-2.203-1.971-.291-1.296.222-2.516 1.147-2.724.926-.209 1.911.673 2.204 1.969zm7.201-2.3084c.24 1.0614-.182 2.0596-.939 2.2295-.759.17-1.565-.5516-1.804-1.6118-.239-1.0616.182-2.0597.938-2.231.759-.17 1.565.5516 1.804 1.6132z" fill="#FF4A87"/></g></svg>