<svg xmlns="http://www.w3.org/2000/svg" viewBox="0 0 80.5 80.5" enable-background="new 0 0 80.5 80.5"><style type="text/css">.st0{enable-background:new ;} .st1{fill:#A62044;} .st2{fill:#F4A0AC;stroke:#A62146;stroke-width:2;stroke-miterlimit:10;} .st3{fill:#FBD7DD;stroke:#A62045;stroke-width:2;stroke-miterlimit:10;} .st4{fill:#F07485;} .st5{fill:#A62045;} .st6{fill:#F4A0AC;stroke:#A62045;stroke-width:2;stroke-miterlimit:10;} .st7{fill:none;stroke:#A62045;stroke-width:2;stroke-linecap:round;stroke-miterlimit:10;} .st8{fill:#A62146;} .st9{fill:none;stroke:#A62146;stroke-width:2;stroke-linecap:round;stroke-miterlimit:10;} .st10{opacity:0.3;}</style><g class="st0"><g class="st0"><path d="M42.8 75c4.5-.5 9.1-.7 13.6-1.7 8.6-1.9 14.8-6.9 18-15.3 4-10.7 3.2-21.3-1.5-31.5-3.5-7.6-9.3-13.1-17.7-14.8-9.1-1.8-18.4-2-27.5.4-8.9 2.4-15.7 7.6-19.7 16-3.2 6.7-3.6 13.8-2.6 21 1.4 9.8 6.2 17 15.2 21.4 7.1 3.5 14.5 4.2 22.2 4.5z" class="st1"/><path d="M42.8 75c-7.7-.3-15.2-1.1-22.2-4.5-9-4.4-13.8-11.7-15.2-21.4-1-7.2-.6-14.3 2.6-21 4-8.4 10.9-12.8 19.7-16 9.1-2.5 18.3-2.3 27.5-.4 8.5 1.7 14.2 7.1 17.7 14.8 4.7 10.2 5.5 20.9 1.5 31.5-3.2 8.4-9.4 13.4-18 15.3-4.5 1-9.1 1.2-13.6 1.7z" class="st2"/></g><ellipse cx="46.7" cy="48.3" class="st1" rx="2.3" ry="5.6"/><ellipse cx="36.4" cy="48.3" class="st1" rx="2.3" ry="5.6"/></g><path d="M56.6 48.5c0 7.6-6.6 11.3-15.7 11.3S25.3 56 25.3 48.4s6.4-12.3 15.6-12.3 15.7 4.8 15.7 12.4z" class="st3"/><ellipse cx="18.3" cy="44.5" transform="matrix(.963 -.27 .27 .963 -11.335 6.583)" class="st4" rx="5" ry="2.8"/><ellipse cx="63.4" cy="44.6" transform="matrix(.27 -.963 .963 .27 3.321 93.543)" class="st4" rx="2.8" ry="5"/><ellipse cx="36.7" cy="48.3" class="st5" rx="1.9" ry="5.6"/><ellipse cx="45.1" cy="48.3" class="st5" rx="1.9" ry="5.6"/><path d="M10.4 23S5.2 9.1 9 6.4s14.4 6.7 14.4 6.7L16.5 18l-6.1 5z" class="st6"/><path d="M13 12.9l3.5 5" class="st7"/><path d="M72 23s5.2-13.9 1.4-16.6c-3.8-2.7-13.8 6.1-13.8 6.1l6.3 4.7L72 23z" class="st6"/><path d="M69.4 12.9L66 17.2" class="st7"/><ellipse cx="20.1" cy="36.1" transform="matrix(.927 -.376 .376 .927 -12.095 10.207)" class="st8" rx="3" ry="3"/><ellipse cx="62.6" cy="36.1" transform="matrix(.927 -.376 .376 .927 -8.981 26.179)" class="st8" rx="3" ry="3"/><path d="M51.8 64.6s8.5-1.6 11-8M60.5 53.9s2.8 4.2 6.2 3.5" class="st9"/></svg>