<?xml version="1.0" encoding="UTF-8" standalone="no"?>
<svg width="20px" height="18px" viewBox="0 0 20 18" version="1.1" xmlns="http://www.w3.org/2000/svg" xmlns:xlink="http://www.w3.org/1999/xlink">
    <!-- Generator: Sketch 3.8.1 (29687) - http://www.bohemiancoding.com/sketch -->
    <title>Shape</title>
    <desc>Created with Sketch.</desc>
    <defs></defs>
    <g id="Page-1" stroke="none" stroke-width="1" fill="none" fill-rule="evenodd">
        <g id="Pro" transform="translate(-267.000000, -375.000000)" fill="#FFFFFF">
            <g id="Header" transform="translate(0.000000, 60.000000)">
                <g id="Bullets" transform="translate(252.000000, 298.000000)">
                    <g id="4" transform="translate(0.000000, 1.000000)">
                        <g id="Group-49">
                            <path d="M33.75,33.5004167 L21.5708333,33.5004167 L21.5691667,33.5020833 L21.5675,33.5004167 L19.9995833,33.5004167 C19.3095833,33.5004167 18.75,32.9408333 18.75,32.2504167 L18.75,21 C18.75,20.3104167 19.3095833,19.7508333 19.9995833,19.7508333 L33.75,19.7508333 C34.44,19.7508333 35,20.3104167 35,21 L35,32.2504167 C35,32.9408333 34.44,33.5004167 33.75,33.5004167 L33.75,33.5004167 Z M33.75,21.6254167 C33.75,21.28 33.47,21 33.125,21 L20.625,21 C20.2795833,21 19.9995833,21.28 19.9995833,21.6254167 L19.9995833,31.625 C19.9995833,31.97 20.2795833,32.2504167 20.625,32.2504167 L20.9433333,32.2504167 L25.64375,27.5383333 L25.62125,27.51625 L26.5095833,26.6308333 L26.5291667,26.6504167 L26.5558333,26.6241667 L27.4925,27.56375 L27.4691667,27.5866667 L29.0695833,29.18 L30.6579167,27.59125 L30.6345833,27.5679167 L31.5670833,26.6354167 L31.5904167,26.6583333 L31.62625,26.6229167 L32.5025,27.49875 L32.4666667,27.5345833 L33.75,28.8175 L33.75,21.6254167 L33.75,21.6254167 Z M33.75,30.0475 L33.4320833,30.3654167 L31.53375,28.4675 L29.9466667,30.05375 L30.0029167,30.1095833 L29.1141667,30.9945833 L29.0604167,30.9404167 L28.9979167,31.0033333 L28.1216667,30.1275 L28.1825,30.0666667 L26.5833333,28.4745833 L22.8170833,32.2504167 L33.1245833,32.2504167 C33.4695833,32.2504167 33.7495833,31.97 33.7495833,31.625 L33.7495833,30.0475 L33.75,30.0475 Z M23.125,27.2508333 C22.0895833,27.2508333 21.25,26.41125 21.25,25.3754167 C21.25,24.3395833 22.0895833,23.5004167 23.125,23.5004167 C24.16,23.5004167 25,24.34 25,25.3754167 C25,26.41125 24.16,27.2508333 23.125,27.2508333 L23.125,27.2508333 Z M23.125,24.75 C22.7795833,24.75 22.5,25.0304167 22.5,25.375 C22.5,25.7204167 22.7795833,26 23.125,26 C23.47,26 23.75,25.7204167 23.75,25.375 C23.75,25.0304167 23.47,24.75 23.125,24.75 L23.125,24.75 Z M31.25,17.8754167 C31.25,17.5308333 30.97,17.2504167 30.625,17.2504167 L16.875,17.2504167 C16.5295833,17.2504167 16.2495833,17.5304167 16.2495833,17.8754167 L16.2495833,29.1258333 C16.2495833,29.4704167 16.5295833,29.7504167 16.875,29.7504167 L17.5,29.7504167 L17.5,31.0008333 L16.2495833,31.0008333 C15.5595833,31.0008333 15,30.4408333 15,29.7504167 L15,17.2504167 C15,16.5604167 15.5595833,16 16.2495833,16 L31.25,16 C31.94,16 32.5,16.5608333 32.5,17.2504167 L32.5,18.5 L31.25,18.5 L31.25,17.8754167 L31.25,17.8754167 Z" id="Shape"></path>
                        </g>
                    </g>
                </g>
            </g>
        </g>
    </g>
</svg>