<svg width="1440" height="380" viewBox="0 0 1440 380" xmlns="http://www.w3.org/2000/svg" xmlns:xlink="http://www.w3.org/1999/xlink"><title>B4C46801-1C53-4BEC-B547-3255F2AFC7BD</title><defs><path id="a" d="M0 0h1579v380H0z"/><path id="c" d="M.6 25.3h25V.3H.5v25z"/><path id="e" d="M.3 25.3h25V.3H.3v25z"/><path id="g" d="M0 93h290.6V0H0z"/><path id="i" d="M0 76h155V.3H0z"/><path id="k" d="M0 397h197.5V0H0z"/><path id="m" d="M0 107h216.8V.2H0z"/><path id="o" d="M0 0v10.2h359.8V0H0z"/><path id="q" d="M359.8 4.4v4.3H0V.2h359.8v4.2z"/><path id="s" d="M0 226h359.8V0H0z"/></defs><g transform="translate(-60)" fill="none" fill-rule="evenodd"><mask id="b" fill="#fff"><use xlink:href="#a"/></mask><use fill="#FF3D7B" xlink:href="#a"/><g mask="url(#b)"><path fill="#FEC00F" d="M178.3 345.7h88v-59.2h-88"/><path fill="#F99B1C" d="M178.3 345.7h88v-29h-88"/><g transform="translate(19 286.324)"><path d="M255.5 59.3l-10 19h-49.2c-1-7.2-7.3-13-15-13-7.5 0-13.8 5.8-14.8 13h-7.2v-19h96.2z" fill="#2C5871"/><g transform="translate(249.054 67.535)"><mask id="d" fill="#fff"><use xlink:href="#c"/></mask><path d="M13 .4C20 .4 25.6 6 25.6 13c0 6.8-5.5 12.3-12.4 12.3C6.3 25.3.7 19.8.7 13 .6 6 6.2.3 13 .3" fill="#0E303F" mask="url(#d)"/></g><path d="M278.7 83c-1.4 0-2.5-1.2-2.5-2.6 0-7.8-6.3-14-14-14-7.8 0-14.2 6.2-14.2 14 0 1.4-1 2.5-2.5 2.5-1.4 0-2.6-1.2-2.6-2.6 0-10.6 8.5-19.2 19-19.2 10.7 0 19.3 8.6 19.3 19.2 0 1.4-1 2.5-2.6 2.5" fill="#164058"/><path d="M262 86.3c3.4 0 6-2.7 6-6 0-3.2-2.6-5.8-6-5.8-3 0-5.8 2.6-5.8 6 0 3 2.7 5.8 6 5.8" fill="#FFF"/><g transform="translate(168.62 67.535)"><mask id="f" fill="#fff"><use xlink:href="#e"/></mask><path d="M12.8.4C19.8.4 25.3 6 25.3 13c0 6.8-5.6 12.3-12.5 12.3C5.8 25.3.3 19.8.3 13 .3 6 6 .3 12.8.3" fill="#0E303F" mask="url(#f)"/></g><path d="M198 83c-1.4 0-2.5-1.2-2.5-2.6 0-7.8-6.3-14-14-14-7.8 0-14.2 6.2-14.2 14 0 1.4-1 2.5-2.5 2.5-1.4 0-2.6-1.2-2.6-2.6 0-10.6 8.6-19.2 19.2-19.2s19.2 8.6 19.2 19.2c0 1.4-1 2.5-2.6 2.5" fill="#164058"/><path d="M181.4 86.3c3.3 0 6-2.7 6-6 0-3.2-2.7-5.8-6-5.8-3.2 0-6 2.6-6 6 0 3 2.8 5.8 6 5.8" fill="#FFF"/><path d="M262 61.5c-3.8 0-7.3 1.2-10.3 3V18h26.7L289 47.5v31h-8c-1-9.6-9-17-19-17" fill="#2C5871"/><path fill="#D1ECFB" d="M276 21.7h-18v23h26.4"/><path d="M285.8 56.8h4.8v15.6h-4.8c-1 0-1.6-.7-1.6-1.6V58.4c0-1 .7-1.6 1.6-1.6" fill="#164057"/><mask id="h" fill="#fff"><use xlink:href="#g"/></mask><path fill="#164057" mask="url(#h)" d="M258 55.2h2v-7h-2"/><path d="M26.4 57h-1c-5.5 1-9.2 6-8.4 11.3.8 5.4 5.8 9 11.2 8.3 2.4-.4 4.4-1.5 6-3.2 2.3 2.6 6 4 9.6 3.5 6-1 10-6.6 9.3-12.6-.8-6-6.4-10-12.4-9-1.4 0-2.8.6-4 1.3-1-2.2-3.4-3.5-5.8-3-2 .2-3.7 1.6-4.4 3.3zm69.3-6c-2.5-1-5.3-1.3-8.2-1C81 51 76 55.5 74 61c-1.3-.4-3-.6-4.5-.4-5.2.8-8.8 5.6-8 10.7.7 5.2 5.5 8.8 10.7 8 2-.2 3.5-1 5-2 3.4 4 9 6.5 15 5.6 3.3-.5 6.2-2 8.5-4 3.6 4.3 9.2 6.7 15.2 6 9-1.4 15.3-9.8 14-19-1.3-9-9.7-15.2-18.8-14-.2 0-.5 0-.7.2-2-3-5.5-4.6-9.2-4-2.2.2-4 1.3-5.6 2.8zM11.2 62.6c.5 3-1.7 6-4.7 6.3-3 .4-6-1.7-6.4-4.8-.4-3 1.7-6 4.8-6.4 3-.4 6 1.7 6.4 4.8z" fill="#480116" opacity=".2" mask="url(#h)"/></g></g><g mask="url(#b)"><g transform="translate(-9 117)"><mask id="j" fill="#fff"><use xlink:href="#i"/></mask><path d="M135.4 35.8c-1 0-2 0-3 .3-3.7-8.8-12-15.3-22-15.3-3.7 0-7.3 1-10.5 2.6C95 12 84.5 3.3 72 1c-2.5-.5-5.2-.8-8-.8-17 0-31.3 11.4-35.8 27-1.2-.2-2.3-.3-3.5-.3C11 27 0 38 0 51.4 0 65 11 76 24.7 76c112 0 105-.2 106.6-.2 13 0 23.7-7 23.7-19.4 0-11-8.6-20.6-19.6-20.6" fill="#FFF" mask="url(#j)"/></g><path d="M114 162l-.5-1.4.6 1.4" fill="#DEF1EE"/><path d="M132.5 174.3C122 179 115.8 166.5 114 162c1.4 4 4.6 14.8-.8 17.8-1 .5-1.7.6-2.4.8-19 5-26.3-18.8-28-24.3.5 1.8 1.3 5.3 1.4 9.5.7 21.5-17.4 22.2-28.8 20.8l-7.3-1.3c-10.6-1.6-18.8-14.2-25.8-23 10.4 15.5 6 31.8-18.3 32h62.6c10 .8 22.7.6 32.5.3 22 .2 32.2-3 33-12.6.3-3.8.8-4 .5-7.7" fill="#D7F1F1"/><path d="M83 156.3l-.4-1 .3 1" fill="#DEF1EE"/><g transform="rotate(-110 134.908 149.335)"><path d="M71.4 212.3l8 27.7-23.3-2-5.4-19.6c-1-3.3 1-9.7 7-11.8 6.3-2 13 2.4 13.8 5.7zM96 212.3l8 27.7-23.3-2-5.5-19.6c-1-3.3 1-9.7 7-11.8 6.3-2 13 2.4 13.8 5.7" fill="#F1BF8C"/><path d="M82 216.7l2 34.3 8.2 28s1.3 25.7 41.4 25.7c40 0 40-88.3 40-88.3L128 141.7l-.8-43-66 2.6s-8 90.4 15.6 101.5l5 14z" fill="#F4CDA5"/><path d="M159 233.4c0-8-6.5-14.7-14.7-14.7h-86c-8.4 0-15 6.7-15 15v148.5c0 8 6.4 14.7 14.6 14.7h86.3c8.2 0 14.8-6.7 14.8-14.8V233.4z" fill="#FFF"/><path d="M130.2 345c8.5 0 15.4 6.7 15.4 15.2s-7 15.4-15.4 15.4c-8.5 0-15.4-7-15.4-15.4 0-8.5 7-15.3 15.4-15.3" fill="#2C5871"/><mask id="l" fill="#fff"><use xlink:href="#k"/></mask><path fill="#FFF" mask="url(#l)" d="M126.2 379h6.8v-39.7h-6.8"/><path d="M83.3 257V183l36 12.6v58.4c0 11.7-9.5 20.5-18.4 20.5 0 0-17.7.3-17.7-17.2" fill="#F4CDA5" mask="url(#l)"/><path d="M110.4 250s-4-5-11-5c-7-.3-10 5.5-10 5.5s-5.6 18 10.5 17.6c15-.3 10.4-18 10.4-18" fill="#FFF" mask="url(#l)"/><path d="M119.3 255.6V218l38.2.3h13.2c-7-11.4-28-46-44.3-73.7 0-18.8-2-34-2-45.8h-24.2v143s14 1.3 14 8.5c0 5.5 1.4 12-4.4 17.7-4.6 3-8.7 2.8-8.7 2.8l.4 3.6s15-1 17.8-18.5v-.4z" fill="#F2C495" mask="url(#l)"/><path d="M159.2 287s7.6-18 17.3-67c-5.6-8-48.5-78.3-48.5-78.3l-15.5-.6 8.7 77h23c4 0 8 1.6 10.7 4.5 2.8 3 4.4 6.8 4.4 10.8l-.2 53.8z" fill="#F2C495" mask="url(#l)"/><path fill="#2C5871" mask="url(#l)" d="M50 129.5h88.8V38H50"/><path d="M72.5 115.6c2.5 0 4.5-2 4.5-4.6 0-2.5-2-4.5-4.5-4.5s-4.6 2-4.6 4.5 2 4.6 4.5 4.6M57 130.5h77.4V128H57" fill="#FFF" mask="url(#l)"/><path fill="#2C5871" mask="url(#l)" d="M65.3 311h4.3v-29h-4.3M65.3 346h4.3v-29h-4.3M65.3 381h4.3v-29.2h-4.3"/><path fill="#F1A20D" mask="url(#l)" d="M121.3 273h22.5v-29.6h-22.5"/></g></g><g mask="url(#b)"><g transform="translate(1188 92)"><mask id="n" fill="#fff"><use xlink:href="#m"/></mask><path d="M189.4 50.4c-1.5 0-3 0-4.4.3-5-12.4-16.6-21.6-30.6-21.6-5.2 0-10.2 1.4-14.7 3.7-7-16-21.4-28-39-31.2C97 .7 93.4.3 89.7.3c-24 0-44 16-50.3 38-1.6-.4-3.2-.5-5-.5C15.5 37.8 0 53.3 0 72.4c0 19 15.5 34.5 34.5 34.5 156.8 0 147-.4 149-.4 18.2 0 33.3-10 33.3-27.3 0-15.4-12-29-27.4-29" fill="#FFF" mask="url(#n)"/></g><path d="M1360 153.5c-.3-1.3-.7-2-.7-2l.8 2" fill="#DEF1EE"/><path d="M1386 170.7c-15 6.7-23.4-11-26-17.2 2 5.6 6.4 20.8-1 25-1.5.6-2.4.8-3.5 1-26.5 7.2-36.8-26.3-39-34 .6 2.4 1.7 7.4 2 13.3 1 30.2-24.5 31-40.5 29.2l-10-2c-15-2-26.6-20-36.3-32 14.5 21.6 8.4 44.5-25.6 44.8h87.7c14.2 1 31.8.8 45.5.4 30.7.4 45-4.3 46-17.8.4-5.2 1-5.5.7-10.7" fill="#D7F1F1"/><path d="M1316.5 145.4l-.4-1.6.5 1.6" fill="#DEF1EE"/><g transform="translate(1188.93 154.26)"><path d="M338 207.8H31V9.8C31 4.4 35.2 0 40.6 0h290.8c3.6 0 6.5 3 6.5 6.5v201.3z" fill="#2C5871"/><path d="M42.7 193V15c0-1.8 1.4-3.2 3-3.2H323c1.7 0 3 1.4 3 3v178H42.8z" fill="#FFF"/><path fill="#FFF" d="M82.2 115.7h33v-2h-33"/><path d="M155 207.4h50-50z" fill="#003D54"/><g transform="translate(0 207.35)"><mask id="p" fill="#fff"><use xlink:href="#o"/></mask><path fill="#FFF" mask="url(#p)" d="M359.8 0H0v10.2h359.8"/></g><g transform="translate(0 217.327)"><mask id="r" fill="#fff"><use xlink:href="#q"/></mask><path d="M0 .2v.2s3.2 8.3 9.3 8.3H322c34 0 36-3.8 37.8-8.3V.2H0z" fill="#2C5871" mask="url(#r)"/></g><path fill="#003D54" d="M.4 209.7h359v-3H.4"/><path d="M158.8 214.5c0 .6.5 1 1.2 1h39.8c.7 0 1.2-.4 1.2-1v-1c0-.8-.5-1.3-1.2-1.3H160c-.7 0-1.2.5-1.2 1.2v1z" fill="#2C5871"/><mask id="t" fill="#fff"><use xlink:href="#s"/></mask><path fill="#BBE7E7" mask="url(#t)" d="M51.6 182.4H228v-162H51.7M246 182.4h67.4v-162H246"/><g mask="url(#t)" fill="#3C989E"><path d="M30.6 57.4h32.7v5.5c0 18.6-32.7 18.6-32.7 0v-5.6z"/><path d="M63 57.3h34.7v6c0 18.4-34.8 18.4-34.8 0v-6zM98 57.3h34.8V63c0 18.6-34.8 18.6-34.8 0v-5.7zM133 57.3h35v6c0 18.4-35 18.4-35 0v-6z"/><path d="M167.6 57.3h35.2V63c0 18.6-35.2 18.6-35.2 0v-5.7zM202.8 57.3h35v6c0 18.4-35 18.4-35 0v-6zM238 57.3h34.4V63c0 18.6-34.3 18.6-34.3 0v-5.7zM308 57.3h30.5v6c0 18.4-30.5 18.4-30.5 0v-6zM273 57.3h35v6c0 18.4-35 18.4-35 0v-6z"/></g><path fill="#FFF" mask="url(#t)" d="M170.7 180.3h55.6V130M255.7 180.3h55.6V130"/><path fill="#3C989E" mask="url(#t)" d="M274.6 102.4l-1.2-.8 8-7.6 7.5 7.6-1.4.8-6.4-6.4"/><path d="M283 95.4c0-1-.7-1.8-1.7-1.8s-2 .8-2 1.8 1 1.7 2 1.7 1.8-.7 1.8-1.6" fill="#3C989E" mask="url(#t)"/><path d="M104 163c0-.3-.5-.6-1-.6H101c-.4 0-.8.3-.8.7v13.3c0 .4.4.8.8.8h2.3c.5 0 1-.3 1-.7V163zm-8.7 0c0-.3-.4-.6-.8-.6h-2.3c-.4 0-.8.3-.8.7v13.3c0 .4.4.8.8.8h2.3c.4 0 .8-.3.8-.7V163zm-8.7 0c0-.3-.3-.6-.7-.6h-2.5c-.4 0-.7.3-.7.7v13.3c0 .4.3.8.7.8H86c.3 0 .6-.3.6-.7V163zm-8.6 0c0-.3-.3-.6-.7-.6H75c-.5 0-.8.3-.8.7v13.3c0 .4.3.8.7.8h2.3c.4 0 .7-.3.7-.7V163zm40.2-9.4c.3 0 .5.2.5.5v6c0 .2-.2.5-.5.5H114l-6.2 18.7c-.4 1.2-1.6 2-3 2H73c-1.4 0-2.5-.8-3-2l-6-18.7h-3.5c-.3 0-.5-.3-.5-.6v-6c0-.2.2-.4.5-.4h58z" fill="#F88700" mask="url(#t)"/><path d="M75 157.2l-3.6-1.7 9.8-20c0-.4.3-.6.7-.8h.8l1.3.8c.7.3 1 1 .7 1.6L75 157.3zM102.2 157.2l3.5-1.7-10-20.6c0-.3-.2-.4-.4-.4h-.5l-1.8 1c-.6.2-1 1-.6 1.5l9.8 20.2z" fill="#FFF" mask="url(#t)"/><path d="M103.8 153.6c0-.8-.6-1.4-1.4-1.4-.7 0-1.4.6-1.4 1.4 0 .8.7 1.4 1.4 1.4.8 0 1.4-.6 1.4-1.4M76 153.6c0-.8-.6-1.4-1.3-1.4-.8 0-1.4.6-1.4 1.4 0 .8.6 1.4 1.4 1.4.7 0 1.4-.6 1.4-1.4" fill="#451F38" mask="url(#t)"/><path fill="#3F1833" mask="url(#t)" d="M114 160H63.7l.5 1.3h49"/><path d="M167.6 124.3c0 2.8-2.2 5-5 5H122c-2.6 0-5-2.2-5-5V110c0-3 2.4-5 5-5h40.6c2.8 0 5 2 5 5v14.3z" fill="#FF316E" mask="url(#t)"/><path d="M131.3 117.7v4.8h1.6c.7 0 1.4-.3 2-.7.4-.4.7-1 .7-1.6 0-.7-.3-1.3-.8-1.7-.7-.5-1.3-.8-1.8-.8h-2zm3.4-1.6c.5-.3.7-.7.7-1.2s-.2-1-.5-1.2c-.5-.4-1-.6-1.4-.6h-2.3v3.6h2c.6 0 1-.2 1.4-.5zm1-3.4c.8.6 1.2 1.3 1.2 2.2 0 .7-.4 1.3-1 1.8-.3.3-.7.6-1 .6l1.3.8c.6.6 1 1.3 1 2.2 0 1-.4 1.8-1 2.3-1 .8-2 1-3 1h-3.7V112h3.7c1 0 2 0 2.5.6zM138.7 112h1.6v8.5c0 .6.2 1 .5 1.4.4.2 1 .3 1.5.3.7 0 1.2 0 1.5-.4.4-.4.6-1 .6-1.5V112h1.6v8.5c0 1-.4 2-1 2.5-.6.4-1.4.6-2.6.6-1.3 0-2-.2-2.6-.6-.7-.6-1-1.5-1-2.5V112zM149 112l2.4 4.6 2.5-4.7h1.6l-3.4 6.3v5.3h-1.6v-5.3l-3.3-6.4M133.2 101.2c-.2 0-.5 0-.7-.4l-3.8-5c-.2-.4-.2-1 .2-1.2.3-.3.8-.2 1 .2l4 5c.2.4 0 1-.3 1.2l-.5.2M153 101.2c-.3 0-.5 0-.6-.2-.4-.3-.4-1 0-1.2l5-5.7c.4-.3 1-.3 1.3 0 .3.3.3.8 0 1.2l-5 5.7-.8.2M143.8 100c-.5 0-1-.4-1-1v-9c0-.6.4-1 .8-1 .5 0 1 .4 1 .8V99c0 .6-.4 1-.8 1zM158 139.2c-.2 0-.4 0-.6-.3l-3.8-5.2c-.3-.4-.2-1 .2-1.2.3-.2 1-.2 1 .2l4 5c.2.4.2 1-.2 1.2l-.5.2M129.4 140c-.2 0-.4-.2-.6-.4-.3-.3-.3-.8 0-1l5-6c.4-.2 1-.2 1.3 0 .4.4.5 1 .2 1.2l-5.2 5.8c0 .2-.4.3-.6.3M143.8 144.6c-.4 0-.8-.4-.8-.8v-9.3c0-.4.3-.8.7-.8.5 0 1 .4 1 .8v9.3c0 .4-.4.8-.8.8h-.2z" fill="#FFF" mask="url(#t)"/><path fill="#313743" mask="url(#t)" d="M179 155.3l-5-23.7 21.8 9-11 4"/><path fill="#1C6C99" mask="url(#t)" d="M43.2 11.4H63v40H28"/><path fill="#D5EDFB" mask="url(#t)" d="M63 51.5h34.7v-40H63"/><path fill="#1C6C99" mask="url(#t)" d="M97.7 51.5H133v-40H97.8"/><path fill="#D5EDFB" mask="url(#t)" d="M133 51.5h35v-40h-35"/><path fill="#1C6C99" mask="url(#t)" d="M168 51.5h34.8v-40H168"/><path fill="#D5EDFB" mask="url(#t)" d="M202.8 51.5h35v-40h-35"/><path fill="#1C6C99" mask="url(#t)" d="M237.7 51.5h35v-40h-35"/><path fill="#D5EDFB" mask="url(#t)" d="M272.6 51.5H308v-40h-35.4"/><path fill="#1C6C99" mask="url(#t)" d="M308 11.4h22l13 40h-35"/><path d="M28 51.4h35V57c0 18.7-35 18.7-35 0v-5.6z" fill="#0B496B" mask="url(#t)"/><path d="M62.8 51.2h34.8v6c0 18.3-34.8 18.3-34.8 0v-6z" fill="#FFF" mask="url(#t)"/><path d="M98.2 51.4h34.5V57c0 18.7-34.5 18.7-34.5 0v-5.6z" fill="#0B496B" mask="url(#t)"/><path d="M133.3 51.2H168v6c0 18.3-34.7 18.3-34.7 0v-6z" fill="#FFF" mask="url(#t)"/><path d="M167.8 51.4h35V57c0 18.7-35 18.7-35 0v-5.6z" fill="#0B496B" mask="url(#t)"/><path d="M202.8 51.2h34.8v6c0 18.3-34.8 18.3-34.8 0v-6z" fill="#FFF" mask="url(#t)"/><path d="M238 51.4h34.5V57c0 18.7-34.6 18.7-34.6 0v-5.6z" fill="#0B496B" mask="url(#t)"/><path d="M308 51.3h35V57c0 18.6-35 18.6-35 0v-5.7z" fill="#0C496B" mask="url(#t)"/><path d="M273.3 51.2H308v6c0 18.3-34.7 18.3-34.7 0v-6z" fill="#FFF" mask="url(#t)"/><path d="M306.4 128c0-1.4-1.2-2.6-2.7-2.6-1.4 0-2.6 1.2-2.6 2.7 0 1.5 1.3 2.7 2.7 2.7 1.5 0 2.7-1.2 2.7-2.6" fill="#2C5871" mask="url(#t)"/><path fill="#FFF" mask="url(#t)" d="M265 119.3h32.3v-17.7H265"/><path d="M270.7 110.2c0 .8.2 1.4.6 1.8.4.4 1 .6 1.5.6s1-.2 1.4-.6c.4-.4.6-1 .6-2 0-.4 0-1-.3-1.4l-.7-.7c-.3-.3-.7-.4-1-.4-.6 0-1 .2-1.5.6-.4.4-.6 1-.6 2m0 2.2c-.5-.6-.8-1.4-.8-2.2 0-1 .2-2 .8-2.5.5-.6 1.2-.8 2-.8.5 0 1 0 1.4.2.4.3.8.7 1 1.2.3.4.4 1 .4 1.7 0 1-.3 1.8-.7 2.4-.7.6-1.4 1-2.2 1-1 0-1.6-.4-2-1M277.3 110h1.6c.3 0 .7 0 1-.3 0-.2.3-.5.3-1 0 0 0-.4-.2-.5 0-.2-.2-.3-.3-.4h-2.5v2.2zm-.7 3.3V107h3.2c.5.2.8.4 1 .7.2.3.3.6.3 1 0 .6 0 1-.4 1.5-.4.3-1 .5-1.7.5h-1.7v2.6h-.7zM282 113.3V107h4.3v.7h-3.5v2h3.3v.7H283v2h3.7v1M287.5 113.3V107h.8l3 5v-5h1v6.3h-1l-3-5v5" fill="#313743" mask="url(#t)"/></g></g></g></svg>