<?xml version="1.0" encoding="UTF-8" standalone="no"?>
<svg width="17px" height="28px" viewBox="0 0 17 28" version="1.1" xmlns="http://www.w3.org/2000/svg" xmlns:xlink="http://www.w3.org/1999/xlink">
    <!-- Generator: Sketch 3.8.1 (29687) - http://www.bohemiancoding.com/sketch -->
    <title>Dollar</title>
    <desc>Created with Sketch.</desc>
    <defs></defs>
    <g id="Page-1" stroke="none" stroke-width="1" fill="none" fill-rule="evenodd">
        <g id="Dollar" transform="translate(-1.000000, 0.000000)" fill="#FFFFFF">
            <g id="Shape">
                <g id="Page-1">
                    <g id="Icons">
                        <g id="Shape">
                            <path d="M17.5,18.646 C17.5,21.445 15.592,24.372 10.494,24.713 L10.494,27.482 L8.486,27.482 L8.486,24.713 C5.164,24.525 2.632,23.219 0.986,21.445 L2.632,19.453 C3.882,20.854 5.888,22.099 8.486,22.379 L8.486,14.816 C5.132,13.944 1.677,12.889 1.677,9.06 C1.677,5.857 4.538,3.583 8.486,3.305 L8.486,0.473 L10.494,0.473 L10.494,3.336 C13.223,3.553 15.394,4.611 17.007,6.199 L15.361,8.096 C14.047,6.728 12.336,5.949 10.494,5.7 L10.494,12.484 C13.882,13.387 17.5,14.569 17.5,18.646 L17.5,18.646 L17.5,18.646 Z M10.494,22.411 C13.619,22.099 14.672,20.326 14.672,18.832 C14.672,16.809 12.797,15.969 10.494,15.315 L10.494,22.411 L10.494,22.411 L10.494,22.411 Z M8.486,5.637 C6.151,5.794 4.506,7.101 4.506,8.905 C4.506,10.616 6.25,11.365 8.486,11.986 L8.486,5.637 L8.486,5.637 L8.486,5.637 Z"></path>
                        </g>
                    </g>
                </g>
            </g>
        </g>
    </g>
</svg>