<?xml version="1.0" encoding="UTF-8" standalone="no"?>
<svg width="16px" height="16px" viewBox="0 0 16 16" version="1.1" xmlns="http://www.w3.org/2000/svg" xmlns:xlink="http://www.w3.org/1999/xlink">
    <!-- Generator: Sketch 3.8.1 (29687) - http://www.bohemiancoding.com/sketch -->
    <title>Group</title>
    <desc>Created with Sketch.</desc>
    <defs></defs>
    <g id="Page-1" stroke="none" stroke-width="1" fill="none" fill-rule="evenodd">
        <g id="Pro" transform="translate(-805.000000, -2621.000000)" fill="#1A8DC9">
            <g id="Prix" transform="translate(-462.000000, 2406.000000)">
                <g id="Group-30" transform="translate(810.000000, 0.000000)">
                    <g id="Group-12" transform="translate(40.000000, 43.000000)">
                        <g id="1" transform="translate(0.000000, 158.000000)">
                            <g id="ui-16px-e-2_check" transform="translate(417.000000, 14.000000)">
                                <g id="Group">
                                    <path d="M8,0 C3.589,0 0,3.589 0,8 C0,12.411 3.589,16 8,16 C12.411,16 16,12.411 16,8 C16,3.589 12.411,0 8,0 L8,0 Z M8,14 C4.691,14 2,11.309 2,8 C2,4.691 4.691,2 8,2 C11.309,2 14,4.691 14,8 C14,11.309 11.309,14 8,14 L8,14 Z" id="Shape" fill-opacity="0.249999985"></path>
                                    <polygon id="Shape" points="7 11.414 3.586 8 5 6.586 7 8.586 11 4.586 12.414 6"></polygon>
                                </g>
                            </g>
                        </g>
                    </g>
                </g>
            </g>
        </g>
    </g>
</svg>