<?xml version="1.0" encoding="UTF-8" standalone="no"?>
<svg width="24px" height="24px" viewBox="0 0 24 24" version="1.1" xmlns="http://www.w3.org/2000/svg" xmlns:xlink="http://www.w3.org/1999/xlink">
    <!-- Generator: Sketch 3.6.1 (26313) - http://www.bohemiancoding.com/sketch -->
    <title>Shape</title>
    <desc>Created with Sketch.</desc>
    <defs></defs>
    <g id="Page-1" stroke="none" stroke-width="1" fill="none" fill-rule="evenodd">
        <g id="Home-1170px" transform="translate(-1131.000000, -595.000000)" fill="#FFFFFF">
            <g id="Catégories" transform="translate(0.000000, 580.000000)">
                <g id="Insolite" transform="translate(1002.000000, 0.000000)">
                    <g id="Group-23" transform="translate(111.000000, 15.000000)">
                        <path d="M40.2426147,1.7573242 C37.8994751,-0.5858154 34.1005249,-0.5858154 31.7573852,1.7573242 L19.7573852,13.7573242 C17.4141845,16.1004638 17.4141845,19.8994751 19.7573852,22.2426147 C22.1005248,24.5857543 25.899475,24.5857543 28.2426147,22.2426147 L40.2426147,10.2426147 C42.5858154,7.8994751 42.5858154,4.1004639 40.2426147,1.7573242 L40.2426147,1.7573242 Z M27.833313,19.791626 L26.272644,18.2310181 L26.9230346,17.5806275 L24.4516601,15.1089478 L23.8011474,15.7594605 L22.2404785,14.1987916 L25.2404785,11.1987916 L26.8011474,12.7594605 L25.8657226,13.6948853 L28.3370971,16.166565 L29.272644,15.2310181 L30.8333129,16.791626 L27.833313,19.791626 L27.833313,19.791626 Z M34.8124924,12.8125 L33.2518311,11.2518311 L34.0865479,10.4171143 L31.6150513,7.9456177 L30.7803345,8.7803345 L29.2196656,7.2196656 L32.2196656,4.2196656 L33.7803345,5.7803345 L33.0291138,6.5315552 L35.5006104,9.0030518 L36.2518311,8.2518311 L37.8124924,9.8125 L34.8124924,12.8125 L34.8124924,12.8125 Z" id="Shape"></path>
                    </g>
                </g>
            </g>
        </g>
    </g>
</svg>